<?xml version="1.0" encoding="utf-8"?>
<!-- Generator: Adobe Illustrator 20.1.0, SVG Export Plug-In . SVG Version: 6.00 Build 0)  -->
<svg version="1.1" id="Layer_1" xmlns="http://www.w3.org/2000/svg" xmlns:xlink="http://www.w3.org/1999/xlink" x="0px" y="0px"
	 viewBox="0 0 213.9 79.5" style="enable-background:new 0 0 213.9 79.5;" xml:space="preserve">
<style type="text/css">
	.st0{clip-path:url(#SVGID_2_);}
	.st1{clip-path:url(#SVGID_4_);fill:#FFFFFF;}
	.st2{clip-path:url(#SVGID_6_);}
	.st3{clip-path:url(#SVGID_8_);fill:#FFFFFF;}
	.st4{clip-path:url(#SVGID_10_);}
	.st5{clip-path:url(#SVGID_12_);fill:#FFFFFF;}
	.st6{clip-path:url(#SVGID_14_);}
	.st7{clip-path:url(#SVGID_16_);fill:#FFFFFF;}
	.st8{clip-path:url(#SVGID_18_);}
	.st9{clip-path:url(#SVGID_20_);fill:#FFFFFF;}
	.st10{clip-path:url(#SVGID_22_);}
	.st11{clip-path:url(#SVGID_24_);fill:#FFFFFF;}
	.st12{clip-path:url(#SVGID_26_);}
	.st13{clip-path:url(#SVGID_28_);fill:#FFFFFF;}
	.st14{clip-path:url(#SVGID_30_);}
	.st15{clip-path:url(#SVGID_32_);fill:#FFFFFF;}
	.st16{clip-path:url(#SVGID_34_);}
	.st17{clip-path:url(#SVGID_36_);fill:#FFFFFF;}
	.st18{clip-path:url(#SVGID_38_);}
	.st19{clip-path:url(#SVGID_40_);fill:#FFFFFF;}
	.st20{clip-path:url(#SVGID_42_);}
	.st21{clip-path:url(#SVGID_44_);fill:#FFFFFF;}
	.st22{clip-path:url(#SVGID_46_);}
	.st23{clip-path:url(#SVGID_48_);fill:#FFFFFF;}
	.st24{clip-path:url(#SVGID_50_);}
	.st25{clip-path:url(#SVGID_52_);fill:#FFFFFF;}
	.st26{clip-path:url(#SVGID_54_);}
	.st27{clip-path:url(#SVGID_56_);fill:#FFFFFF;}
	.st28{clip-path:url(#SVGID_58_);}
	.st29{clip-path:url(#SVGID_60_);fill:#FFFFFF;}
	.st30{clip-path:url(#SVGID_62_);}
	.st31{clip-path:url(#SVGID_64_);fill:#FFFFFF;}
	.st32{clip-path:url(#SVGID_66_);}
	.st33{clip-path:url(#SVGID_68_);fill:#FFFFFF;}
	.st34{clip-path:url(#SVGID_70_);}
	.st35{clip-path:url(#SVGID_72_);fill:#FFFFFF;}
	.st36{clip-path:url(#SVGID_74_);}
	.st37{clip-path:url(#SVGID_76_);fill:#FFFFFF;}
	.st38{clip-path:url(#SVGID_78_);}
	.st39{clip-path:url(#SVGID_80_);fill:#FFFFFF;}
	.st40{clip-path:url(#SVGID_82_);}
	.st41{clip-path:url(#SVGID_84_);fill:#FFFFFF;}
	.st42{clip-path:url(#SVGID_86_);}
	.st43{clip-path:url(#SVGID_88_);fill:#FFFFFF;}
	.st44{clip-path:url(#SVGID_90_);}
	.st45{clip-path:url(#SVGID_92_);fill:#FFFFFF;}
	.st46{clip-path:url(#SVGID_94_);}
	.st47{clip-path:url(#SVGID_96_);fill:#FFFFFF;}
	.st48{clip-path:url(#SVGID_98_);}
	.st49{clip-path:url(#SVGID_100_);fill:#FFFFFF;}
	.st50{clip-path:url(#SVGID_102_);}
	.st51{clip-path:url(#SVGID_104_);fill:#FFFFFF;}
	.st52{clip-path:url(#SVGID_106_);}
	.st53{clip-path:url(#SVGID_108_);fill:#FFFFFF;}
	.st54{clip-path:url(#SVGID_110_);}
	.st55{clip-path:url(#SVGID_112_);fill:#FFFFFF;}
	.st56{clip-path:url(#SVGID_114_);}
	.st57{clip-path:url(#SVGID_116_);fill:#FFFFFF;}
	.st58{clip-path:url(#SVGID_118_);}
	.st59{clip-path:url(#SVGID_120_);fill:#FFFFFF;}
	.st60{clip-path:url(#SVGID_122_);}
	.st61{clip-path:url(#SVGID_124_);fill:#FFFFFF;}
	.st62{clip-path:url(#SVGID_126_);}
	.st63{clip-path:url(#SVGID_128_);fill:#FFFFFF;}
	.st64{clip-path:url(#SVGID_130_);}
	.st65{clip-path:url(#SVGID_132_);fill:#FFFFFF;}
	.st66{clip-path:url(#SVGID_134_);}
	.st67{clip-path:url(#SVGID_136_);fill:#FFFFFF;}
	.st68{clip-path:url(#SVGID_138_);}
	.st69{clip-path:url(#SVGID_140_);fill:#FFFFFF;}
	.st70{clip-path:url(#SVGID_142_);}
	.st71{clip-path:url(#SVGID_144_);fill:#FFFFFF;}
	.st72{clip-path:url(#SVGID_146_);}
	.st73{clip-path:url(#SVGID_148_);fill:#FFFFFF;}
	.st74{clip-path:url(#SVGID_150_);}
	.st75{clip-path:url(#SVGID_152_);fill:#FFFFFF;}
	.st76{clip-path:url(#SVGID_154_);}
	.st77{clip-path:url(#SVGID_156_);fill:#FFFFFF;}
	.st78{clip-path:url(#SVGID_158_);}
	.st79{clip-path:url(#SVGID_160_);fill:#FFFFFF;}
	.st80{clip-path:url(#SVGID_162_);}
	.st81{clip-path:url(#SVGID_164_);fill:#FFFFFF;}
</style>
<g>
	<defs>
		<path id="SVGID_1_" d="M187,4l4.5,0L209,6.3l-0.3,2.2l-2.4,17.3c-4-1.2-10.4-2.6-14.5-2.6c-1.2,0-5.2-0.1-5.2,1.6
			c0,1.2,1.4,1.6,1.7,1.6h2.7c11.7,0,22.8,7.2,22.8,20.9c0,11-8.9,20.4-22.4,20.7l-12-0.2c-6.2-0.7-9.5-1.6-14.2-3.1
			c-0.6-3.4-1.4-10.1-1.4-10.6l-0.3-3.4l-0.4-7.1c7,2,14.3,4.8,20.7,4.8c0.9,0,5,0.1,5-1.6c0-0.8-1-1.4-1.3-1.4H185
			c-9.7,0-21.6-5.2-23.8-18.1c0-2-0.2-2.1-0.2-2.6c0-13,10.4-20.7,21.8-20.7c0,0,0.5,0,0.9,0C184.1,3.9,187,4,187,4"/>
	</defs>
	<clipPath id="SVGID_2_">
		<use xlink:href="#SVGID_1_"  style="overflow:visible;"/>
	</clipPath>
	<g class="st0">
		<defs>
			<rect id="SVGID_3_" x="-171.8" y="-6228.4" width="2727.8" height="6431.5"/>
		</defs>
		<clipPath id="SVGID_4_">
			<use xlink:href="#SVGID_3_"  style="overflow:visible;"/>
		</clipPath>
		<rect x="151.4" y="-5.6" class="st1" width="72" height="83"/>
	</g>
</g>
<g>
	<defs>
		<path id="SVGID_5_" d="M19.9,3.9l20.9,0c-7.4,9.7-14.2,20.5-14.2,30.8c0,7.6,5,12.5,12.2,12.5c0.5,0,2.5-0.2,3.8-0.4
			c-6.8,14.6-3.7,20.3-16.5,20.3c-0.5,0-1.1,0-3.1-0.2C9.9,65.3,2.9,57.3,3.7,46.6c0.6-7.6,4-14.9,3.9-14.9
			C7.5,31.7,20.1,4.1,19.9,3.9"/>
	</defs>
	<clipPath id="SVGID_6_">
		<use xlink:href="#SVGID_5_"  style="overflow:visible;"/>
	</clipPath>
	<g class="st2">
		<defs>
			<rect id="SVGID_7_" x="-171.8" y="-6228.4" width="2727.8" height="6431.5"/>
		</defs>
		<clipPath id="SVGID_8_">
			<use xlink:href="#SVGID_7_"  style="overflow:visible;"/>
		</clipPath>
		<rect x="-5.8" y="-5.6" class="st3" width="57.9" height="82.2"/>
	</g>
</g>
<g>
	<defs>
		<path id="SVGID_9_" d="M45.4,3.8h10.8l20.9,62.4H50.6l-6.7-19.5c0.1-1.3,2.1-1.9,3-3c2.1-2.6,2.9-5.2,2.9-7.9
			c0-8.9-9.9-10-9.9-19.4C39.8,13.9,42.3,3.8,45.4,3.8"/>
	</defs>
	<clipPath id="SVGID_10_">
		<use xlink:href="#SVGID_9_"  style="overflow:visible;"/>
	</clipPath>
	<g class="st4">
		<defs>
			<rect id="SVGID_11_" x="-171.8" y="-6228.4" width="2727.8" height="6431.5"/>
		</defs>
		<clipPath id="SVGID_12_">
			<use xlink:href="#SVGID_11_"  style="overflow:visible;"/>
		</clipPath>
		<rect x="30.2" y="-5.7" class="st5" width="56.3" height="81.4"/>
	</g>
</g>
<g>
	<defs>
		<path id="SVGID_13_" d="M60.7,4h26.8l11.1,31.5c3.7-2.2,5.4-10.5,5.4-13.8c0-5.3-2.4-12.6-7.6-17.2l28.9-0.3
			c5.2,3.4,6.9,10.2,6.9,14.7c0,0.5,0,1.5-0.2,3.9c-0.3,3.5-1.8,7-3.4,10.4c-4.3,8.7-20.1,33.2-23.6,33.1H82.2L60.7,4"/>
	</defs>
	<clipPath id="SVGID_14_">
		<use xlink:href="#SVGID_13_"  style="overflow:visible;"/>
	</clipPath>
	<g class="st6">
		<defs>
			<rect id="SVGID_15_" x="-171.8" y="-6228.4" width="2727.8" height="6431.5"/>
		</defs>
		<clipPath id="SVGID_16_">
			<use xlink:href="#SVGID_15_"  style="overflow:visible;"/>
		</clipPath>
		<rect x="51.1" y="-5.5" class="st7" width="90.5" height="81.3"/>
	</g>
</g>
<g>
	<defs>
		<path id="SVGID_17_" d="M132.1,4.3h21.2c5.3,0,5.6,4.1,5.6,7.5l-0.5,14.9V60c0,2.1-0.5,4.7,2.1,6.2h-22c-3,0-5.1-0.9-5.1-4.1V7.2
			C133.5,6.2,132.8,5.1,132.1,4.3"/>
	</defs>
	<clipPath id="SVGID_18_">
		<use xlink:href="#SVGID_17_"  style="overflow:visible;"/>
	</clipPath>
	<g class="st8">
		<defs>
			<rect id="SVGID_19_" x="-171.8" y="-6228.4" width="2727.8" height="6431.5"/>
		</defs>
		<clipPath id="SVGID_20_">
			<use xlink:href="#SVGID_19_"  style="overflow:visible;"/>
		</clipPath>
		<rect x="122.6" y="-5.2" class="st9" width="47.4" height="81"/>
	</g>
</g>
<g>
	<defs>
		<path id="SVGID_21_" d="M42.6,4c-2.9,5.6-4.1,8.1-4.1,12.8c0,10.1,9.5,11,9.5,18.8c0,5.4-4.1,10.3-9.8,10.3c-6.8,0-10-6.2-10-11
			C28.2,25.1,34.3,12.5,42.6,4"/>
	</defs>
	<clipPath id="SVGID_22_">
		<use xlink:href="#SVGID_21_"  style="overflow:visible;"/>
	</clipPath>
	<g class="st10">
		<defs>
			<rect id="SVGID_23_" x="-171.8" y="-6228.4" width="2727.8" height="6431.5"/>
		</defs>
		<clipPath id="SVGID_24_">
			<use xlink:href="#SVGID_23_"  style="overflow:visible;"/>
		</clipPath>
		<rect x="18.7" y="-5.5" class="st11" width="38.9" height="60.9"/>
	</g>
</g>
<g>
	<defs>
		<path id="SVGID_25_" d="M6.1,73.3c0-0.1,0-0.1,0-0.2c0-0.1-0.1-0.2-0.1-0.3h1.2L9.6,79c0.1,0.4,0.2,0.4,0.4,0.5H8.5
			c0.1-0.1,0.2-0.1,0.2-0.3c0-0.1,0-0.1-0.1-0.2L8,77.3H5.3L4.6,79c0,0.1-0.1,0.1-0.1,0.2c0,0.3,0.2,0.3,0.2,0.3H3.5
			c0.1-0.1,0.2-0.1,0.4-0.6L6.1,73.3z M7.7,76.7l-1.1-3l-1.1,3H7.7z"/>
	</defs>
	<clipPath id="SVGID_26_">
		<use xlink:href="#SVGID_25_"  style="overflow:visible;"/>
	</clipPath>
	<g class="st12">
		<defs>
			<rect id="SVGID_27_" x="-171.8" y="-6228.4" width="2727.8" height="6431.5"/>
		</defs>
		<clipPath id="SVGID_28_">
			<use xlink:href="#SVGID_27_"  style="overflow:visible;"/>
		</clipPath>
		<rect x="-6" y="63.3" class="st13" width="25.5" height="25.8"/>
	</g>
</g>
<g>
	<defs>
		<path id="SVGID_29_" d="M14.6,74.2c-0.1-0.1-0.6-0.9-1.7-0.9c-0.7,0-1.3,0.5-1.3,1.2c0,0.5,0.2,0.8,0.9,1.1l0.9,0.4
			c1.1,0.4,1.6,0.9,1.6,1.8c0,1.1-0.9,2-2.3,2c-1.1,0-1.4-0.4-1.8-0.4c-0.1,0-0.2,0.1-0.2,0.2V78c0.2,0.4,0.7,1,1.9,1
			c0.9,0,1.5-0.4,1.5-1.1c0-0.6-0.4-0.9-1.1-1.1l-1-0.4c-0.9-0.3-1.5-1-1.5-1.8c0-1.2,1-1.9,2.3-1.9c0.9,0,1.1,0.3,1.5,0.3
			c0.1,0,0.1,0,0.2-0.1V74.2z"/>
	</defs>
	<clipPath id="SVGID_30_">
		<use xlink:href="#SVGID_29_"  style="overflow:visible;"/>
	</clipPath>
	<g class="st14">
		<defs>
			<rect id="SVGID_31_" x="-171.8" y="-6228.4" width="2727.8" height="6431.5"/>
		</defs>
		<clipPath id="SVGID_32_">
			<use xlink:href="#SVGID_31_"  style="overflow:visible;"/>
		</clipPath>
		<rect x="1.1" y="63.1" class="st15" width="23.5" height="26.1"/>
	</g>
</g>
<g>
	<defs>
		<path id="SVGID_33_" d="M20.2,74.2c-0.1-0.1-0.6-0.9-1.7-0.9c-0.7,0-1.3,0.5-1.3,1.2c0,0.5,0.2,0.8,0.9,1.1l0.9,0.4
			c1.1,0.4,1.6,0.9,1.6,1.8c0,1.1-0.9,2-2.3,2c-1.1,0-1.4-0.4-1.8-0.4c-0.1,0-0.2,0.1-0.2,0.2V78c0.2,0.4,0.7,1,1.9,1
			c0.9,0,1.5-0.4,1.5-1.1c0-0.6-0.4-0.9-1.1-1.1l-1-0.4c-0.9-0.3-1.5-1-1.5-1.8c0-1.2,1-1.9,2.3-1.9c0.9,0,1.1,0.3,1.5,0.3
			c0.1,0,0.1,0,0.2-0.1V74.2z"/>
	</defs>
	<clipPath id="SVGID_34_">
		<use xlink:href="#SVGID_33_"  style="overflow:visible;"/>
	</clipPath>
	<g class="st16">
		<defs>
			<rect id="SVGID_35_" x="-171.8" y="-6228.4" width="2727.8" height="6431.5"/>
		</defs>
		<clipPath id="SVGID_36_">
			<use xlink:href="#SVGID_35_"  style="overflow:visible;"/>
		</clipPath>
		<rect x="6.7" y="63.1" class="st17" width="23.5" height="26.1"/>
	</g>
</g>
<g>
	<defs>
		<path id="SVGID_37_" d="M21.8,76.2c0-1.9,1.3-3.6,3.3-3.6c1.9,0,3.3,1.7,3.3,3.6c0,1.7-1.3,3.5-3.3,3.5
			C23.2,79.7,21.8,78,21.8,76.2 M25.1,79c1.5,0,2.3-1.4,2.3-2.8c0-1.5-1-2.8-2.3-2.8c-1.5,0-2.4,1.4-2.4,2.8
			C22.7,77.6,23.6,79,25.1,79"/>
	</defs>
	<clipPath id="SVGID_38_">
		<use xlink:href="#SVGID_37_"  style="overflow:visible;"/>
	</clipPath>
	<g class="st18">
		<defs>
			<rect id="SVGID_39_" x="-171.8" y="-6228.4" width="2727.8" height="6431.5"/>
		</defs>
		<clipPath id="SVGID_40_">
			<use xlink:href="#SVGID_39_"  style="overflow:visible;"/>
		</clipPath>
		<rect x="12.3" y="63.1" class="st19" width="25.6" height="26.1"/>
	</g>
</g>
<g>
	<defs>
		<path id="SVGID_41_" d="M34.4,79.2c-0.1-0.1-0.1-0.1-0.2-0.1c-0.2,0-0.7,0.6-1.7,0.6c-1.7,0-3-1.5-3-3.5c0-2.1,1.3-3.5,3-3.5
			c0.9,0,1.1,0.3,1.5,0.3c0.1,0,0.1,0,0.2-0.1v1.3c-0.1-0.1-0.5-0.9-1.5-0.9c-1.3,0-2.2,1.2-2.2,2.9c0,1.6,0.9,2.8,2.1,2.8
			c0.8,0,1.6-0.7,1.8-1.1V79.2z"/>
	</defs>
	<clipPath id="SVGID_42_">
		<use xlink:href="#SVGID_41_"  style="overflow:visible;"/>
	</clipPath>
	<g class="st20">
		<defs>
			<rect id="SVGID_43_" x="-171.8" y="-6228.4" width="2727.8" height="6431.5"/>
		</defs>
		<clipPath id="SVGID_44_">
			<use xlink:href="#SVGID_43_"  style="overflow:visible;"/>
		</clipPath>
		<rect x="20" y="63.1" class="st21" width="23.9" height="26.1"/>
	</g>
</g>
<g>
	<defs>
		<path id="SVGID_45_" d="M35.9,73.3c0-0.4-0.1-0.4-0.2-0.6H37c-0.2,0.1-0.2,0.2-0.2,0.6V79c0,0.4,0.1,0.4,0.2,0.6h-1.4
			c0.2-0.1,0.2-0.2,0.2-0.6V73.3z"/>
	</defs>
	<clipPath id="SVGID_46_">
		<use xlink:href="#SVGID_45_"  style="overflow:visible;"/>
	</clipPath>
	<g class="st22">
		<defs>
			<rect id="SVGID_47_" x="-171.8" y="-6228.4" width="2727.8" height="6431.5"/>
		</defs>
		<clipPath id="SVGID_48_">
			<use xlink:href="#SVGID_47_"  style="overflow:visible;"/>
		</clipPath>
		<rect x="26.1" y="63.3" class="st23" width="20.4" height="25.8"/>
	</g>
</g>
<g>
	<defs>
		<path id="SVGID_49_" d="M40.4,73.3c0-0.1,0-0.1,0-0.2c0-0.1-0.1-0.2-0.1-0.3h1.2l2.4,6.3c0.1,0.4,0.2,0.4,0.4,0.5h-1.5
			c0.1-0.1,0.2-0.1,0.2-0.3c0-0.1,0-0.1-0.1-0.2l-0.7-1.8h-2.7L38.9,79c0,0.1-0.1,0.1-0.1,0.2c0,0.3,0.2,0.3,0.2,0.3h-1.3
			c0.1-0.1,0.2-0.1,0.4-0.6L40.4,73.3z M42,76.7l-1.1-3l-1.1,3H42z"/>
	</defs>
	<clipPath id="SVGID_50_">
		<use xlink:href="#SVGID_49_"  style="overflow:visible;"/>
	</clipPath>
	<g class="st24">
		<defs>
			<rect id="SVGID_51_" x="-171.8" y="-6228.4" width="2727.8" height="6431.5"/>
		</defs>
		<clipPath id="SVGID_52_">
			<use xlink:href="#SVGID_51_"  style="overflow:visible;"/>
		</clipPath>
		<rect x="28.3" y="63.3" class="st25" width="25.5" height="25.8"/>
	</g>
</g>
<g>
	<defs>
		<path id="SVGID_53_" d="M48.2,73.4h-2.7c-0.5,0-0.4,0.1-0.6,0.3v-1h4.4v0.4l-3.7,5.7h3.1c0.5,0,0.5-0.2,0.7-0.3v1h-4.8v-0.4
			L48.2,73.4z"/>
	</defs>
	<clipPath id="SVGID_54_">
		<use xlink:href="#SVGID_53_"  style="overflow:visible;"/>
	</clipPath>
	<g class="st26">
		<defs>
			<rect id="SVGID_55_" x="-171.8" y="-6228.4" width="2727.8" height="6431.5"/>
		</defs>
		<clipPath id="SVGID_56_">
			<use xlink:href="#SVGID_55_"  style="overflow:visible;"/>
		</clipPath>
		<rect x="35" y="63.3" class="st27" width="23.9" height="25.8"/>
	</g>
</g>
<g>
	<defs>
		<path id="SVGID_57_" d="M50.7,73.3c0-0.4-0.1-0.4-0.2-0.6h1.4c-0.2,0.1-0.2,0.2-0.2,0.6V79c0,0.4,0.1,0.4,0.2,0.6h-1.4
			c0.2-0.1,0.2-0.2,0.2-0.6V73.3z"/>
	</defs>
	<clipPath id="SVGID_58_">
		<use xlink:href="#SVGID_57_"  style="overflow:visible;"/>
	</clipPath>
	<g class="st28">
		<defs>
			<rect id="SVGID_59_" x="-171.8" y="-6228.4" width="2727.8" height="6431.5"/>
		</defs>
		<clipPath id="SVGID_60_">
			<use xlink:href="#SVGID_59_"  style="overflow:visible;"/>
		</clipPath>
		<rect x="40.9" y="63.3" class="st29" width="20.4" height="25.8"/>
	</g>
</g>
<g>
	<defs>
		<path id="SVGID_61_" d="M53.1,76.2c0-1.9,1.3-3.6,3.3-3.6c1.9,0,3.3,1.7,3.3,3.6c0,1.7-1.3,3.5-3.3,3.5
			C54.5,79.7,53.1,78,53.1,76.2 M56.4,79c1.5,0,2.3-1.4,2.3-2.8c0-1.5-1-2.8-2.3-2.8c-1.5,0-2.4,1.4-2.4,2.8
			C54,77.6,54.9,79,56.4,79"/>
	</defs>
	<clipPath id="SVGID_62_">
		<use xlink:href="#SVGID_61_"  style="overflow:visible;"/>
	</clipPath>
	<g class="st30">
		<defs>
			<rect id="SVGID_63_" x="-171.8" y="-6228.4" width="2727.8" height="6431.5"/>
		</defs>
		<clipPath id="SVGID_64_">
			<use xlink:href="#SVGID_63_"  style="overflow:visible;"/>
		</clipPath>
		<rect x="43.6" y="63.1" class="st31" width="25.6" height="26.1"/>
	</g>
</g>
<g>
	<defs>
		<path id="SVGID_65_" d="M61.3,73.3c0-0.4-0.1-0.4-0.2-0.6h1.2l3.6,5.4h0v-4.8c0-0.4-0.1-0.4-0.2-0.6h1.1c-0.2,0.1-0.2,0.2-0.2,0.6
			v6.2h-0.8L62,74h0v5c0,0.4,0.1,0.4,0.3,0.6h-1.1c0.2-0.1,0.2-0.2,0.2-0.6V73.3z"/>
	</defs>
	<clipPath id="SVGID_66_">
		<use xlink:href="#SVGID_65_"  style="overflow:visible;"/>
	</clipPath>
	<g class="st32">
		<defs>
			<rect id="SVGID_67_" x="-171.8" y="-6228.4" width="2727.8" height="6431.5"/>
		</defs>
		<clipPath id="SVGID_68_">
			<use xlink:href="#SVGID_67_"  style="overflow:visible;"/>
		</clipPath>
		<rect x="51.5" y="63.3" class="st33" width="24.8" height="25.8"/>
	</g>
</g>
<g>
	<defs>
		<path id="SVGID_69_" d="M68.6,73.3c0-0.4-0.1-0.4-0.3-0.6h4.2v0.9c-0.1-0.1-0.1-0.3-0.6-0.3h-2.4v2.3h2.1c0.5,0,0.5-0.1,0.6-0.2
			v1.1c-0.1-0.1-0.1-0.2-0.6-0.2h-2.2v2.5h2.4c0.5,0,0.5-0.2,0.6-0.3v0.9h-4.2c0.2-0.1,0.3-0.2,0.3-0.6V73.3z"/>
	</defs>
	<clipPath id="SVGID_70_">
		<use xlink:href="#SVGID_69_"  style="overflow:visible;"/>
	</clipPath>
	<g class="st34">
		<defs>
			<rect id="SVGID_71_" x="-171.8" y="-6228.4" width="2727.8" height="6431.5"/>
		</defs>
		<clipPath id="SVGID_72_">
			<use xlink:href="#SVGID_71_"  style="overflow:visible;"/>
		</clipPath>
		<rect x="58.8" y="63.3" class="st35" width="23.2" height="25.8"/>
	</g>
</g>
<g>
	<defs>
		<path id="SVGID_73_" d="M76.5,73.2c-0.1-0.3-0.2-0.4-0.3-0.5h1.5c-0.1,0.1-0.2,0.1-0.2,0.2c0,0,0,0.1,0.1,0.2l1.7,5.2h0l1.6-5.2
			c0-0.1,0.1-0.3,0.1-0.3c0-0.1-0.1-0.1-0.2-0.2h1.2c-0.2,0.1-0.3,0.3-0.4,0.5l-2,6.2h-0.9L76.5,73.2z"/>
	</defs>
	<clipPath id="SVGID_74_">
		<use xlink:href="#SVGID_73_"  style="overflow:visible;"/>
	</clipPath>
	<g class="st36">
		<defs>
			<rect id="SVGID_75_" x="-171.8" y="-6228.4" width="2727.8" height="6431.5"/>
		</defs>
		<clipPath id="SVGID_76_">
			<use xlink:href="#SVGID_75_"  style="overflow:visible;"/>
		</clipPath>
		<rect x="66.6" y="63.3" class="st37" width="24.8" height="25.8"/>
	</g>
</g>
<g>
	<defs>
		<path id="SVGID_77_" d="M82.4,76.2c0-1.9,1.3-3.6,3.3-3.6c1.9,0,3.3,1.7,3.3,3.6c0,1.7-1.3,3.5-3.3,3.5
			C83.8,79.7,82.4,78,82.4,76.2 M85.7,79c1.5,0,2.4-1.4,2.4-2.8c0-1.5-1-2.8-2.3-2.8c-1.5,0-2.4,1.4-2.4,2.8
			C83.4,77.6,84.3,79,85.7,79"/>
	</defs>
	<clipPath id="SVGID_78_">
		<use xlink:href="#SVGID_77_"  style="overflow:visible;"/>
	</clipPath>
	<g class="st38">
		<defs>
			<rect id="SVGID_79_" x="-171.8" y="-6228.4" width="2727.8" height="6431.5"/>
		</defs>
		<clipPath id="SVGID_80_">
			<use xlink:href="#SVGID_79_"  style="overflow:visible;"/>
		</clipPath>
		<rect x="72.9" y="63.1" class="st39" width="25.6" height="26.1"/>
	</g>
</g>
<g>
	<defs>
		<path id="SVGID_81_" d="M90.6,73.3c0-0.4-0.1-0.4-0.2-0.6h1.4c-0.2,0.1-0.2,0.2-0.2,0.6v5.6h2.4c0.5,0,0.5-0.2,0.6-0.3v0.9h-4.2
			c0.2-0.1,0.2-0.2,0.2-0.6V73.3z"/>
	</defs>
	<clipPath id="SVGID_82_">
		<use xlink:href="#SVGID_81_"  style="overflow:visible;"/>
	</clipPath>
	<g class="st40">
		<defs>
			<rect id="SVGID_83_" x="-171.8" y="-6228.4" width="2727.8" height="6431.5"/>
		</defs>
		<clipPath id="SVGID_84_">
			<use xlink:href="#SVGID_83_"  style="overflow:visible;"/>
		</clipPath>
		<rect x="80.8" y="63.3" class="st41" width="23.2" height="25.8"/>
	</g>
</g>
<g>
	<defs>
		<path id="SVGID_85_" d="M95.2,76.2c0-1.9,1.3-3.6,3.3-3.6c1.9,0,3.3,1.7,3.3,3.6c0,1.7-1.3,3.5-3.3,3.5
			C96.6,79.7,95.2,78,95.2,76.2 M98.5,79c1.5,0,2.3-1.4,2.3-2.8c0-1.5-1-2.8-2.3-2.8c-1.5,0-2.4,1.4-2.4,2.8
			C96.1,77.6,97,79,98.5,79"/>
	</defs>
	<clipPath id="SVGID_86_">
		<use xlink:href="#SVGID_85_"  style="overflow:visible;"/>
	</clipPath>
	<g class="st42">
		<defs>
			<rect id="SVGID_87_" x="-171.8" y="-6228.4" width="2727.8" height="6431.5"/>
		</defs>
		<clipPath id="SVGID_88_">
			<use xlink:href="#SVGID_87_"  style="overflow:visible;"/>
		</clipPath>
		<rect x="85.7" y="63.1" class="st43" width="25.6" height="26.1"/>
	</g>
</g>
<g>
	<defs>
		<path id="SVGID_89_" d="M103.4,73.3c0-0.4-0.1-0.4-0.2-0.6h1.2l3.6,5.4h0v-4.8c0-0.4-0.1-0.4-0.2-0.6h1.1
			c-0.2,0.1-0.2,0.2-0.2,0.6v6.2h-0.8l-3.8-5.6h0v5c0,0.4,0.1,0.4,0.3,0.6h-1.1c0.2-0.1,0.2-0.2,0.2-0.6V73.3z"/>
	</defs>
	<clipPath id="SVGID_90_">
		<use xlink:href="#SVGID_89_"  style="overflow:visible;"/>
	</clipPath>
	<g class="st44">
		<defs>
			<rect id="SVGID_91_" x="-171.8" y="-6228.4" width="2727.8" height="6431.5"/>
		</defs>
		<clipPath id="SVGID_92_">
			<use xlink:href="#SVGID_91_"  style="overflow:visible;"/>
		</clipPath>
		<rect x="93.6" y="63.3" class="st45" width="24.8" height="25.8"/>
	</g>
</g>
<g>
	<defs>
		<path id="SVGID_93_" d="M114.9,72.8v0.9c-0.1-0.1-0.1-0.3-0.6-0.3h-1.4V79c0,0.4,0.1,0.4,0.3,0.6h-1.4c0.2-0.1,0.3-0.2,0.3-0.6
			v-5.6h-1.4c-0.5,0-0.5,0.1-0.6,0.3v-0.9H114.9z"/>
	</defs>
	<clipPath id="SVGID_94_">
		<use xlink:href="#SVGID_93_"  style="overflow:visible;"/>
	</clipPath>
	<g class="st46">
		<defs>
			<rect id="SVGID_95_" x="-171.8" y="-6228.4" width="2727.8" height="6431.5"/>
		</defs>
		<clipPath id="SVGID_96_">
			<use xlink:href="#SVGID_95_"  style="overflow:visible;"/>
		</clipPath>
		<rect x="100.4" y="63.3" class="st47" width="23.9" height="25.8"/>
	</g>
</g>
<g>
	<defs>
		<path id="SVGID_97_" d="M117.7,73.3c0-0.1,0-0.1,0-0.2c0-0.1-0.1-0.2-0.1-0.3h1.2l2.4,6.3c0.1,0.4,0.2,0.4,0.4,0.5h-1.5
			c0.1-0.1,0.2-0.1,0.2-0.3c0-0.1,0-0.1-0.1-0.2l-0.7-1.8h-2.7l-0.6,1.7c0,0.1-0.1,0.1-0.1,0.2c0,0.3,0.2,0.3,0.2,0.3h-1.3
			c0.1-0.1,0.2-0.1,0.4-0.6L117.7,73.3z M119.4,76.7l-1.1-3l-1.1,3H119.4z"/>
	</defs>
	<clipPath id="SVGID_98_">
		<use xlink:href="#SVGID_97_"  style="overflow:visible;"/>
	</clipPath>
	<g class="st48">
		<defs>
			<rect id="SVGID_99_" x="-171.8" y="-6228.4" width="2727.8" height="6431.5"/>
		</defs>
		<clipPath id="SVGID_100_">
			<use xlink:href="#SVGID_99_"  style="overflow:visible;"/>
		</clipPath>
		<rect x="105.6" y="63.3" class="st49" width="25.5" height="25.8"/>
	</g>
</g>
<g>
	<defs>
		<path id="SVGID_101_" d="M122.6,73.3c0-0.4-0.1-0.4-0.2-0.6h2.1c2,0,2.8,0.6,2.8,2c0,0.6-0.5,1.5-1.7,1.7l1.6,2.5
			c0.3,0.4,0.3,0.4,0.5,0.6h-1.2l-1.8-2.9h-1.2V79c0,0.4,0.1,0.4,0.2,0.6h-1.4c0.2-0.1,0.2-0.2,0.2-0.6V73.3z M124.5,76
			c0.7,0,1.9,0,1.9-1.2c0-0.8-0.5-1.3-1.9-1.3h-1V76H124.5z"/>
	</defs>
	<clipPath id="SVGID_102_">
		<use xlink:href="#SVGID_101_"  style="overflow:visible;"/>
	</clipPath>
	<g class="st50">
		<defs>
			<rect id="SVGID_103_" x="-171.8" y="-6228.4" width="2727.8" height="6431.5"/>
		</defs>
		<clipPath id="SVGID_104_">
			<use xlink:href="#SVGID_103_"  style="overflow:visible;"/>
		</clipPath>
		<rect x="112.8" y="63.3" class="st51" width="24.4" height="25.8"/>
	</g>
</g>
<g>
	<defs>
		<path id="SVGID_105_" d="M128.9,73.3c0-0.4-0.1-0.4-0.2-0.6h1.4c-0.2,0.1-0.2,0.2-0.2,0.6V79c0,0.4,0.1,0.4,0.2,0.6h-1.4
			c0.2-0.1,0.2-0.2,0.2-0.6V73.3z"/>
	</defs>
	<clipPath id="SVGID_106_">
		<use xlink:href="#SVGID_105_"  style="overflow:visible;"/>
	</clipPath>
	<g class="st52">
		<defs>
			<rect id="SVGID_107_" x="-171.8" y="-6228.4" width="2727.8" height="6431.5"/>
		</defs>
		<clipPath id="SVGID_108_">
			<use xlink:href="#SVGID_107_"  style="overflow:visible;"/>
		</clipPath>
		<rect x="119.1" y="63.3" class="st53" width="20.4" height="25.8"/>
	</g>
</g>
<g>
	<defs>
		<path id="SVGID_109_" d="M134.6,73.3c0-0.4-0.1-0.4-0.3-0.6h1.4c-0.2,0.1-0.2,0.2-0.2,0.6V79c0,0.4,0.1,0.4,0.2,0.6h-1.4
			c0.2-0.1,0.3-0.2,0.3-0.6V73.3z"/>
	</defs>
	<clipPath id="SVGID_110_">
		<use xlink:href="#SVGID_109_"  style="overflow:visible;"/>
	</clipPath>
	<g class="st54">
		<defs>
			<rect id="SVGID_111_" x="-171.8" y="-6228.4" width="2727.8" height="6431.5"/>
		</defs>
		<clipPath id="SVGID_112_">
			<use xlink:href="#SVGID_111_"  style="overflow:visible;"/>
		</clipPath>
		<rect x="124.9" y="63.3" class="st55" width="20.4" height="25.8"/>
	</g>
</g>
<g>
	<defs>
		<path id="SVGID_113_" d="M141.7,72.8v0.9c-0.1-0.1-0.1-0.3-0.6-0.3h-1.4V79c0,0.4,0.1,0.4,0.3,0.6h-1.4c0.2-0.1,0.3-0.2,0.3-0.6
			v-5.6h-1.4c-0.5,0-0.5,0.1-0.6,0.3v-0.9H141.7z"/>
	</defs>
	<clipPath id="SVGID_114_">
		<use xlink:href="#SVGID_113_"  style="overflow:visible;"/>
	</clipPath>
	<g class="st56">
		<defs>
			<rect id="SVGID_115_" x="-171.8" y="-6228.4" width="2727.8" height="6431.5"/>
		</defs>
		<clipPath id="SVGID_116_">
			<use xlink:href="#SVGID_115_"  style="overflow:visible;"/>
		</clipPath>
		<rect x="127.3" y="63.3" class="st57" width="23.9" height="25.8"/>
	</g>
</g>
<g>
	<defs>
		<path id="SVGID_117_" d="M144.6,73.3c0-0.1,0-0.1,0-0.2c0-0.1-0.1-0.2-0.1-0.3h1.2l2.4,6.3c0.1,0.4,0.2,0.4,0.4,0.5H147
			c0.1-0.1,0.2-0.1,0.2-0.3c0-0.1,0-0.1-0.1-0.2l-0.7-1.8h-2.7l-0.6,1.7c0,0.1-0.1,0.1-0.1,0.2c0,0.3,0.2,0.3,0.2,0.3H142
			c0.1-0.1,0.2-0.1,0.4-0.6L144.6,73.3z M146.2,76.7l-1.1-3l-1.1,3H146.2z"/>
	</defs>
	<clipPath id="SVGID_118_">
		<use xlink:href="#SVGID_117_"  style="overflow:visible;"/>
	</clipPath>
	<g class="st58">
		<defs>
			<rect id="SVGID_119_" x="-171.8" y="-6228.4" width="2727.8" height="6431.5"/>
		</defs>
		<clipPath id="SVGID_120_">
			<use xlink:href="#SVGID_119_"  style="overflow:visible;"/>
		</clipPath>
		<rect x="132.5" y="63.3" class="st59" width="25.5" height="25.8"/>
	</g>
</g>
<g>
	<defs>
		<path id="SVGID_121_" d="M149.5,73.3c0-0.4-0.1-0.4-0.2-0.6h1.4c-0.2,0.1-0.2,0.2-0.2,0.6v5.6h2.4c0.5,0,0.5-0.2,0.6-0.3v0.9h-4.2
			c0.2-0.1,0.2-0.2,0.2-0.6V73.3z"/>
	</defs>
	<clipPath id="SVGID_122_">
		<use xlink:href="#SVGID_121_"  style="overflow:visible;"/>
	</clipPath>
	<g class="st60">
		<defs>
			<rect id="SVGID_123_" x="-171.8" y="-6228.4" width="2727.8" height="6431.5"/>
		</defs>
		<clipPath id="SVGID_124_">
			<use xlink:href="#SVGID_123_"  style="overflow:visible;"/>
		</clipPath>
		<rect x="139.7" y="63.3" class="st61" width="23.2" height="25.8"/>
	</g>
</g>
<g>
	<defs>
		<path id="SVGID_125_" d="M154.6,73.3c0-0.4-0.1-0.4-0.3-0.6h1.4c-0.2,0.1-0.2,0.2-0.2,0.6V79c0,0.4,0.1,0.4,0.2,0.6h-1.4
			c0.2-0.1,0.3-0.2,0.3-0.6V73.3z"/>
	</defs>
	<clipPath id="SVGID_126_">
		<use xlink:href="#SVGID_125_"  style="overflow:visible;"/>
	</clipPath>
	<g class="st62">
		<defs>
			<rect id="SVGID_127_" x="-171.8" y="-6228.4" width="2727.8" height="6431.5"/>
		</defs>
		<clipPath id="SVGID_128_">
			<use xlink:href="#SVGID_127_"  style="overflow:visible;"/>
		</clipPath>
		<rect x="144.8" y="63.3" class="st63" width="20.4" height="25.8"/>
	</g>
</g>
<g>
	<defs>
		<path id="SVGID_129_" d="M159,73.3c0-0.1,0-0.1,0-0.2c0-0.1-0.1-0.2-0.1-0.3h1.2l2.4,6.3c0.1,0.4,0.2,0.4,0.4,0.5h-1.5
			c0.1-0.1,0.2-0.1,0.2-0.3c0-0.1,0-0.1-0.1-0.2l-0.7-1.8h-2.7l-0.6,1.7c0,0.1-0.1,0.1-0.1,0.2c0,0.3,0.2,0.3,0.2,0.3h-1.3
			c0.1-0.1,0.2-0.1,0.4-0.6L159,73.3z M160.7,76.7l-1.1-3l-1.1,3H160.7z"/>
	</defs>
	<clipPath id="SVGID_130_">
		<use xlink:href="#SVGID_129_"  style="overflow:visible;"/>
	</clipPath>
	<g class="st64">
		<defs>
			<rect id="SVGID_131_" x="-171.8" y="-6228.4" width="2727.8" height="6431.5"/>
		</defs>
		<clipPath id="SVGID_132_">
			<use xlink:href="#SVGID_131_"  style="overflow:visible;"/>
		</clipPath>
		<rect x="146.9" y="63.3" class="st65" width="25.5" height="25.8"/>
	</g>
</g>
<g>
	<defs>
		<path id="SVGID_133_" d="M164,73.3c0-0.4-0.1-0.4-0.2-0.6h1.2l3.6,5.4h0v-4.8c0-0.4-0.1-0.4-0.2-0.6h1.1c-0.2,0.1-0.3,0.2-0.3,0.6
			v6.2h-0.8l-3.8-5.6h0v5c0,0.4,0.1,0.4,0.3,0.6h-1.1c0.2-0.1,0.2-0.2,0.2-0.6V73.3z"/>
	</defs>
	<clipPath id="SVGID_134_">
		<use xlink:href="#SVGID_133_"  style="overflow:visible;"/>
	</clipPath>
	<g class="st66">
		<defs>
			<rect id="SVGID_135_" x="-171.8" y="-6228.4" width="2727.8" height="6431.5"/>
		</defs>
		<clipPath id="SVGID_136_">
			<use xlink:href="#SVGID_135_"  style="overflow:visible;"/>
		</clipPath>
		<rect x="154.2" y="63.3" class="st67" width="24.8" height="25.8"/>
	</g>
</g>
<g>
	<defs>
		<path id="SVGID_137_" d="M171.2,73.3c0-0.4-0.1-0.4-0.2-0.6h1.4c-0.2,0.1-0.3,0.2-0.3,0.6V79c0,0.4,0.1,0.4,0.3,0.6H171
			c0.2-0.1,0.2-0.2,0.2-0.6V73.3z"/>
	</defs>
	<clipPath id="SVGID_138_">
		<use xlink:href="#SVGID_137_"  style="overflow:visible;"/>
	</clipPath>
	<g class="st68">
		<defs>
			<rect id="SVGID_139_" x="-171.8" y="-6228.4" width="2727.8" height="6431.5"/>
		</defs>
		<clipPath id="SVGID_140_">
			<use xlink:href="#SVGID_139_"  style="overflow:visible;"/>
		</clipPath>
		<rect x="161.5" y="63.3" class="st69" width="20.4" height="25.8"/>
	</g>
</g>
<g>
	<defs>
		<path id="SVGID_141_" d="M180.6,74.2c-0.1-0.1-0.6-0.9-1.7-0.9c-0.7,0-1.3,0.5-1.3,1.2c0,0.5,0.2,0.8,0.9,1.1l0.9,0.4
			c1.1,0.4,1.6,0.9,1.6,1.8c0,1.1-0.9,2-2.3,2c-1.1,0-1.4-0.4-1.8-0.4c-0.1,0-0.2,0.1-0.2,0.2V78c0.2,0.4,0.7,1,1.9,1
			c0.9,0,1.5-0.4,1.5-1.1c0-0.6-0.4-0.9-1.1-1.1l-1-0.4c-0.9-0.3-1.5-1-1.5-1.8c0-1.2,1-1.9,2.3-1.9c0.9,0,1.1,0.3,1.5,0.3
			c0.1,0,0.1,0,0.2-0.1V74.2z"/>
	</defs>
	<clipPath id="SVGID_142_">
		<use xlink:href="#SVGID_141_"  style="overflow:visible;"/>
	</clipPath>
	<g class="st70">
		<defs>
			<rect id="SVGID_143_" x="-171.8" y="-6228.4" width="2727.8" height="6431.5"/>
		</defs>
		<clipPath id="SVGID_144_">
			<use xlink:href="#SVGID_143_"  style="overflow:visible;"/>
		</clipPath>
		<rect x="167.1" y="63.1" class="st71" width="23.5" height="26.1"/>
	</g>
</g>
<g>
	<defs>
		<path id="SVGID_145_" d="M184.2,73.3c0-0.1,0-0.1,0-0.2c0-0.1-0.1-0.2-0.1-0.3h1.2l2.4,6.3c0.1,0.4,0.2,0.4,0.4,0.5h-1.5
			c0.1-0.1,0.2-0.1,0.2-0.3c0-0.1,0-0.1-0.1-0.2l-0.7-1.8h-2.7l-0.6,1.7c0,0.1-0.1,0.1-0.1,0.2c0,0.3,0.2,0.3,0.2,0.3h-1.3
			c0.1-0.1,0.2-0.1,0.4-0.6L184.2,73.3z M185.9,76.7l-1.1-3l-1.1,3H185.9z"/>
	</defs>
	<clipPath id="SVGID_146_">
		<use xlink:href="#SVGID_145_"  style="overflow:visible;"/>
	</clipPath>
	<g class="st72">
		<defs>
			<rect id="SVGID_147_" x="-171.8" y="-6228.4" width="2727.8" height="6431.5"/>
		</defs>
		<clipPath id="SVGID_148_">
			<use xlink:href="#SVGID_147_"  style="overflow:visible;"/>
		</clipPath>
		<rect x="172.1" y="63.3" class="st73" width="25.5" height="25.8"/>
	</g>
</g>
<g>
	<defs>
		<path id="SVGID_149_" d="M189.2,73.3c0-0.4-0.1-0.4-0.2-0.6h1.2l3.6,5.4h0v-4.8c0-0.4-0.1-0.4-0.2-0.6h1.1
			c-0.2,0.1-0.2,0.2-0.2,0.6v6.2h-0.8l-3.8-5.6h0v5c0,0.4,0.1,0.4,0.3,0.6h-1.1c0.2-0.1,0.2-0.2,0.2-0.6V73.3z"/>
	</defs>
	<clipPath id="SVGID_150_">
		<use xlink:href="#SVGID_149_"  style="overflow:visible;"/>
	</clipPath>
	<g class="st74">
		<defs>
			<rect id="SVGID_151_" x="-171.8" y="-6228.4" width="2727.8" height="6431.5"/>
		</defs>
		<clipPath id="SVGID_152_">
			<use xlink:href="#SVGID_151_"  style="overflow:visible;"/>
		</clipPath>
		<rect x="179.4" y="63.3" class="st75" width="24.8" height="25.8"/>
	</g>
</g>
<g>
	<defs>
		<path id="SVGID_153_" d="M201.2,74.4c-0.1-0.1-0.7-1-1.9-1c-1.4,0-2.4,1.2-2.4,2.9c0,1.5,0.9,2.8,2.3,2.8c0.4,0,0.8-0.1,1.2-0.3
			v-1.6c0-0.4-0.1-0.4-0.2-0.5h1.4c-0.2,0.1-0.2,0.1-0.2,0.5V79c-0.6,0.4-1.4,0.6-2.2,0.6c-1.9,0-3.2-1.4-3.2-3.4
			c0-2.1,1.4-3.6,3.2-3.6c1.1,0,1.5,0.5,1.8,0.5c0.1,0,0.1,0,0.2-0.1V74.4z"/>
	</defs>
	<clipPath id="SVGID_154_">
		<use xlink:href="#SVGID_153_"  style="overflow:visible;"/>
	</clipPath>
	<g class="st76">
		<defs>
			<rect id="SVGID_155_" x="-171.8" y="-6228.4" width="2727.8" height="6431.5"/>
		</defs>
		<clipPath id="SVGID_156_">
			<use xlink:href="#SVGID_155_"  style="overflow:visible;"/>
		</clipPath>
		<rect x="186.5" y="63.1" class="st77" width="24.6" height="26.1"/>
	</g>
</g>
<g>
	<defs>
		<path id="SVGID_157_" d="M208,77.2c0,1.5-0.4,2.5-2.5,2.5c-2,0-2.5-1-2.5-2.5v-3.8c0-0.4-0.1-0.4-0.2-0.6h1.4
			c-0.2,0.1-0.2,0.2-0.2,0.6v3.8c0,1,0.2,1.8,1.6,1.8c1.5,0,1.8-0.7,1.8-1.8v-3.8c0-0.4-0.1-0.4-0.3-0.6h1.1
			c-0.2,0.1-0.2,0.2-0.2,0.6V77.2z"/>
	</defs>
	<clipPath id="SVGID_158_">
		<use xlink:href="#SVGID_157_"  style="overflow:visible;"/>
	</clipPath>
	<g class="st78">
		<defs>
			<rect id="SVGID_159_" x="-171.8" y="-6228.4" width="2727.8" height="6431.5"/>
		</defs>
		<clipPath id="SVGID_160_">
			<use xlink:href="#SVGID_159_"  style="overflow:visible;"/>
		</clipPath>
		<rect x="193.3" y="63.3" class="st79" width="24.5" height="25.9"/>
	</g>
</g>
<g>
	<defs>
		<path id="SVGID_161_" d="M209.9,73.3c0-0.4-0.1-0.4-0.2-0.6h4.2v0.9c-0.1-0.1-0.1-0.3-0.6-0.3h-2.4v2.3h2.1c0.5,0,0.5-0.1,0.6-0.2
			v1.1c-0.1-0.1-0.1-0.2-0.6-0.2h-2.2v2.5h2.4c0.5,0,0.5-0.2,0.6-0.3v0.9h-4.2c0.2-0.1,0.2-0.2,0.2-0.6V73.3z"/>
	</defs>
	<clipPath id="SVGID_162_">
		<use xlink:href="#SVGID_161_"  style="overflow:visible;"/>
	</clipPath>
	<g class="st80">
		<defs>
			<rect id="SVGID_163_" x="-171.8" y="-6228.4" width="2727.8" height="6431.5"/>
		</defs>
		<clipPath id="SVGID_164_">
			<use xlink:href="#SVGID_163_"  style="overflow:visible;"/>
		</clipPath>
		<rect x="200.2" y="63.3" class="st81" width="23.2" height="25.8"/>
	</g>
</g>
</svg>
