<svg id="Layer_1" data-name="Layer 1" xmlns="http://www.w3.org/2000/svg" viewBox="0 0 2216 892"><defs><style>.cls-1{fill:#e9262a;}.cls-1,.cls-2,.cls-3{fill-rule:evenodd;}.cls-2,.cls-4{fill:#ee4a41;}.cls-3{fill:#e9262c;}.cls-5{fill:#127dc2;}</style></defs><title>Artboard 2</title><path class="cls-1" d="M1703.1,634.58c7.72-9.18,6.88-20.22,6.88-31.12q0-184.82,0-369.65c60-55.74,148.32-54.14,203.78,3.7,54.47,56.8,52.78,144.8-4.2,202.13q-93.68,94.25-188.07,187.78c-4.17,4.12-7.33,18-18.4,7.16"/><path class="cls-2" d="M1703.1,634.58c-68.5-68.2-138.39-135.07-205-205-48.56-51-46.48-134.21-.12-186.84,48.41-54.94,128.81-65.77,188.88-25.35,7.85,5.29,15.44,11,23.15,16.46q0,184.82,0,369.65c0,10.9.84,21.95-6.88,31.12"/><path class="cls-1" d="M405.43,209.89c6.41-13.83,8.78-3.52,11.58,2q19.75,39.15,39.3,78.39c24.92,49.86,50.35,99.47,74.63,149.64C575,531.1,509.64,637.1,411.63,634.12c-1.05-5.28-3.51-10.71-3-15.81,4-35.6,0-71.28,1.51-107,3.65-88.6,1.52-177.46,0-266.19-.19-11.24,3.8-24.54-4.78-35.24"/><path class="cls-3" d="M976.37,213c-.13-4.28.38-8.63,5.12-10s4.8,3.9,6,6.26C1027.33,289,1069.09,367.72,1106,448.68c35.06,76.87-15.65,169.63-95.88,182.36-12.55-1.93-29.85,6.13-29.53-18.81,1.65-128.55-2-257.13,2.17-385.68.21-6.4-1.25-10.42-6.41-13.51"/><path class="cls-4" d="M410.21,245.12c-.19-11.24,3.8-24.54-4.78-35.24C365.23,290,322.19,368.78,285.6,450.48c-39.27,87.7,31.87,188.26,126,183.64-1.05-5.28-3.51-10.71-3-15.81,4-35.6,0-71.28,1.51-107C413.84,422.72,411.7,333.86,410.21,245.12Z"/><path class="cls-2" d="M976.37,213c5.15,3.09,6.62,7.11,6.41,13.51-4.14,128.54-.52,257.12-2.17,385.68-.32,24.94,17,16.88,29.53,18.81-49.66,12.06-92.22-2.18-126.12-38.52-37-39.71-49.43-88.59-27.69-138.36,35.93-82.24,77-162.22,120-241.12"/><path class="cls-5" d="M701.92,457.1H672.09V405.67h-48V376.45h48V326.74h29.83v49.72H750v29.22H701.92Z"/><path class="cls-5" d="M1255.36,379.15V351.9h116.37v27.25Zm0,53.15V405.18h116.37v27.13Z"/></svg>
