<?xml version="1.0" encoding="utf-8"?>
<!-- Generator: Adobe Illustrator 20.1.0, SVG Export Plug-In . SVG Version: 6.00 Build 0)  -->
<svg version="1.1" id="Layer_1" xmlns="http://www.w3.org/2000/svg" xmlns:xlink="http://www.w3.org/1999/xlink" x="0px" y="0px"
	 viewBox="0 0 10.3 10.3" style="enable-background:new 0 0 10.3 10.3;" xml:space="preserve">
<style type="text/css">
	.st0{fill:#FFFFFF;}
</style>
<g>
	<path class="st0" d="M10.3,1.9v6.4c0,1.1-0.9,1.9-1.9,1.9H7.1v-4h1.3l0.2-1.6H7.1v-1C7.1,3.3,7.2,3,7.9,3l0.8,0V1.6
		c-0.1,0-0.6-0.1-1.2-0.1c-1.2,0-2,0.7-2,2v1.1H4.2v1.6h1.3v4H1.9C0.9,10.3,0,9.4,0,8.4V1.9C0,0.9,0.9,0,1.9,0h6.4
		C9.4,0,10.3,0.9,10.3,1.9z"/>
</g>
</svg>
