
<svg width="155px" height="123px" viewBox="0 0 155 123" version="1.1" xmlns="http://www.w3.org/2000/svg" xmlns:xlink="http://www.w3.org/1999/xlink">
    <!-- Generator: Sketch 43.2 (39069) - http://www.bohemiancoding.com/sketch -->
    <desc>Created with Sketch.</desc>
    <defs></defs>
    <g id="Page-1" stroke="none" stroke-width="1" fill="none" fill-rule="evenodd">
        <g id="Desktop" transform="translate(-161.000000, -2639.000000)" fill="#ED1C24">
            <g id="Stats-(s6)" transform="translate(103.000000, 2474.000000)">
                <g id="Donors" transform="translate(0.000000, 165.249500)">
                    <g id="heart-hands-icon-(donors)" transform="translate(58.497745, 0.000000)">
                        <path d="M136.904274,52.7243345 C131.302345,59.8579025 120.668071,64.6223208 124.031691,76.7246501 C124.237973,77.4652014 122.924853,79.2074943 121.961179,79.5946706 C116.28074,81.8823903 110.492542,83.9058469 104.74129,86.0184155 C109.096294,82.4616182 114.154809,80.874503 118.919296,78.6589947 C120.152367,78.0859125 121.320783,75.3203681 120.965178,73.9667878 C120.603416,72.5886249 118.061843,70.5375129 116.933452,70.7940939 C105.303177,73.439798 93.8068302,75.5247111 86.6346988,87.5010545 C79.881288,98.7798662 80.5401574,110.227683 81.6085109,122.161007 L107.778555,122.161007 C105.361674,116.086028 102.944794,110.009513 100.11535,102.894382 C106.81796,100.307061 113.029497,97.4754511 119.507353,95.5149874 C127.864833,92.9860508 133.47138,88.1801493 137.212157,80.1339517 C142.247581,69.3068456 148.329808,58.9637098 153.960985,48.4131582 L153.960985,45.3403311 C146.103814,42.7545472 140.942158,47.5819585 136.904274,52.7243345" id="Fill-1"></path>
                        <path d="M116.984099,33.5144027 C123.682091,19.5376489 121.503819,11.7188405 109.317815,2.32059898 C103.866749,-0.426508393 96.2974487,-0.575540504 92.1287146,1.04076652 C85.7447633,4.48694204 78.6726938,11.25638 76.9808775,12.9187794 C75.2890611,11.25638 68.2169916,4.48694204 61.8330403,1.04076652 C57.6643062,-0.575540504 50.0950059,-0.426508393 44.6424003,2.32059898 C32.4579357,11.7188405 30.2796644,19.5376489 36.9776563,33.5144027 C45.5583518,51.4197658 59.0759492,65.5670615 74.0606085,78.1072686 C75.5215127,79.3287174 76.2511951,79.94021 76.9808775,79.9386735 C77.7105599,79.94021 78.4402423,79.3287174 79.9011465,78.1072686 C94.8858057,65.5670615 108.403403,51.4197658 116.984099,33.5144027" id="Fill-3"></path>
                        <path d="M37.028303,70.7937866 C35.8999123,70.5372056 33.3583392,72.5883176 32.9965768,73.968017 C32.6409721,75.3200609 33.8078482,78.0871416 35.0424585,78.6602238 C39.8069459,80.8757321 44.8654614,82.4613109 49.2204646,86.0181082 C43.4692126,83.907076 37.6810147,81.882083 32.0005757,79.5958997 C31.0353629,79.2071871 29.7237819,77.4648941 29.9300634,76.7243428 C33.2921444,64.6220135 22.6594095,59.8575952 17.0574807,52.7240272 C13.0195968,47.5831876 7.85794053,42.7557763 0.000769707173,45.3400239 L0.000769707173,48.4128509 C5.63194739,58.9634025 11.7141735,69.3065383 16.7480584,80.1336444 C20.4903747,88.1813784 26.0953823,92.9857435 34.4544022,95.5146802 C40.9322578,97.4751438 47.1437947,100.306754 53.8464047,102.894074 C51.0154217,110.009205 48.5985412,116.085721 46.1832001,122.1607 L72.353244,122.1607 C73.4215976,110.227376 74.0804669,98.7795589 67.3270562,87.5007472 C60.1549247,75.5244039 48.6585784,73.4394907 37.028303,70.7937866" id="Fill-5"></path>
                    </g>
                </g>
            </g>
        </g>
    </g>
</svg>