<?xml version="1.0" encoding="utf-8"?>
<!-- Generator: Adobe Illustrator 20.1.0, SVG Export Plug-In . SVG Version: 6.00 Build 0)  -->
<svg version="1.1" id="Layer_1" xmlns="http://www.w3.org/2000/svg" xmlns:xlink="http://www.w3.org/1999/xlink" x="0px" y="0px"
	 viewBox="0 0 12 9.5" style="enable-background:new 0 0 12 9.5;" xml:space="preserve">
<style type="text/css">
	.st0{enable-background:new    ;}
	.st1{fill:#FFFFFF;}
</style>
<g class="st0">
	<path class="st1" d="M12,8.4c0,0.6-0.5,1.1-1.1,1.1H1.1C0.5,9.4,0,8.9,0,8.4V1.1C0,0.5,0.5,0,1.1,0h9.9C11.5,0,12,0.5,12,1.1V8.4z
		 M10.9,0.9H1.1C1,0.9,0.9,1,0.9,1.1c0,0.8,0.4,1.4,1,1.9c0.9,0.7,1.8,1.4,2.7,2.1C4.9,5.4,5.5,6,6,6h0h0c0.5,0,1.1-0.6,1.5-0.9
		C8.4,4.4,9.3,3.7,10.2,3c0.4-0.3,1-1.1,1-1.7C11.1,1.2,11.2,0.9,10.9,0.9z M11.1,3.2c-0.1,0.2-0.3,0.3-0.5,0.4
		c-1,0.7-1.9,1.5-2.9,2.3C7.3,6.3,6.7,6.9,6,6.9h0h0c-0.7,0-1.3-0.5-1.8-0.9C3.2,5.1,2.3,4.4,1.3,3.7C1.2,3.5,1,3.4,0.9,3.2v5.1
		c0,0.1,0.1,0.2,0.2,0.2h9.9c0.1,0,0.2-0.1,0.2-0.2V3.2z"/>
</g>
</svg>
