
<svg width="72px" height="128px" viewBox="0 0 72 128" version="1.1" xmlns="http://www.w3.org/2000/svg" xmlns:xlink="http://www.w3.org/1999/xlink">
    <!-- Generator: Sketch 43.2 (39069) - http://www.bohemiancoding.com/sketch -->
    <desc>Created with Sketch.</desc>
    <defs></defs>
    <g id="Page-1" stroke="none" stroke-width="1" fill="none" fill-rule="evenodd">
        <g id="Desktop" transform="translate(-524.000000, -2630.000000)">
            <g id="Stats-(s6)" transform="translate(103.000000, 2474.000000)">
                <g id="Total-donations" transform="translate(321.072923, 161.523333)">
                    <g id="blood-bag-icon" transform="translate(105.283132, 0.000000)">
                        <g id="Group-17" transform="translate(0.000000, 0.136002)">
                            <path d="M26.7356477,4.085725 C25.543063,4.085725 24.5734596,5.05417016 24.5734596,6.24533032 L24.5734596,14.5387259 C24.5734596,15.7289733 25.543063,16.6974185 26.7356477,16.6974185 L35.0389618,16.6974185 C36.2315465,16.6974185 37.2011499,15.7289733 37.2011499,14.5387259 L37.2011499,6.24533032 C37.2011499,5.05417016 36.2315465,4.085725 35.0389618,4.085725 L26.7356477,4.085725 Z M35.0389618,20.5812395 L26.7356477,20.5812395 C23.4000659,20.5812395 20.6859076,17.8703233 20.6859076,14.5387259 L20.6859076,6.24533032 C20.6859076,2.91282016 23.4000659,0.20190393 26.7356477,0.20190393 L35.0389618,0.20190393 C38.3745436,0.20190393 41.0887019,2.91282016 41.0887019,6.24533032 L41.0887019,14.5387259 C41.0887019,17.8703233 38.3745436,20.5812395 35.0389618,20.5812395 L35.0389618,20.5812395 Z" id="Fill-1" fill="#FEFEFE"></path>
                            <path d="M26.7356477,4.085725 C25.543063,4.085725 24.5734596,5.05417016 24.5734596,6.24533032 L24.5734596,14.5387259 C24.5734596,15.7289733 25.543063,16.6974185 26.7356477,16.6974185 L35.0389618,16.6974185 C36.2315465,16.6974185 37.2011499,15.7289733 37.2011499,14.5387259 L37.2011499,6.24533032 C37.2011499,5.05417016 36.2315465,4.085725 35.0389618,4.085725 L26.7356477,4.085725 Z M35.0389618,20.5812395 L26.7356477,20.5812395 C23.4000659,20.5812395 20.6859076,17.8703233 20.6859076,14.5387259 L20.6859076,6.24533032 C20.6859076,2.91282016 23.4000659,0.20190393 26.7356477,0.20190393 L35.0389618,0.20190393 C38.3745436,0.20190393 41.0887019,2.91282016 41.0887019,6.24533032 L41.0887019,14.5387259 C41.0887019,17.8703233 38.3745436,20.5812395 35.0389618,20.5812395 Z" id="Stroke-3" stroke="#EC2026" stroke-width="10"></path>
                            <path d="M57.9457271,15.2751458 C51.9398521,12.4674764 45.6689583,10.4986392 39.1449259,9.57765792 L39.1449259,6.24514777 C39.1449259,3.98970197 37.2971049,2.14408829 35.0389618,2.14408829 L26.7356477,2.14408829 C24.4775045,2.14408829 22.6296836,3.98970197 22.6296836,6.24514777 L22.6296836,9.553926 C16.4684528,10.4000605 10.4589224,12.1671762 4.58007367,14.6928009 C1.48209495,16.0245271 0.0884614572,18.0170961 0.116791056,21.429017 C0.220970871,33.9476083 0.157914667,46.4671123 0.156086951,58.9857036 C0.155173093,71.5042949 0.153345377,84.0237989 0.155173093,96.5423902 C0.156086951,100.888984 1.55337588,102.872425 5.61547481,104.501713 C11.4541138,106.842959 17.567824,107.928238 23.7966803,108.323466 C25.5403214,108.433911 26.0274077,108.996175 25.8948983,110.597167 C25.7623889,112.187206 25.697505,113.938805 27.5489814,114.608776 C28.7205473,115.033212 28.8375212,115.726915 28.832038,116.718179 L32.5788559,116.718179 C32.5943915,116.227111 32.6537923,115.007655 33.1573281,114.87074 C35.4675612,114.244582 35.5260481,112.42909 35.3670368,110.58804 C35.2253888,108.946886 35.7791868,108.422045 37.4917567,108.322554 C43.8723135,107.950145 50.1203608,106.797321 56.073232,104.365711 C59.0688586,103.141691 61.1487995,101.204801 61.1469718,97.6669185 C61.1378332,71.914127 61.1332639,46.1604228 61.1579381,20.4076314 C61.1597658,17.9641557 60.0439451,16.2563697 57.9457271,15.2751458 Z" id="Stroke-5" stroke="#EC2026" stroke-width="10.2539997"></path>
                            <path d="M57.325583,42.3635884 C56.0141968,42.4037501 55.1295822,43.0572908 54.1736867,43.4799017 C43.7419973,48.0984997 33.1723153,49.0532534 22.2846108,45.0407322 C17.1377624,43.1449164 12.0941799,40.8976855 6.64758607,39.8872531 C4.22220686,39.438172 4.02389967,39.5586572 4.02389967,41.9181584 C4.02024424,59.9434694 4.01841652,77.9678677 4.02024424,95.9931787 C4.0211581,99.4589527 4.33186983,99.8660466 7.66927935,101.120188 C18.1905268,105.074292 29.1074748,105.069728 40.0701157,104.198949 C45.1328892,103.797331 50.0814305,102.676454 54.8042487,100.677496 C56.5515453,99.9372423 57.3703621,98.8136269 57.3392909,96.9150728 C57.2826317,93.4109625 57.255216,89.9032012 57.3566542,86.4018293 C57.3986917,84.9350137 56.8613432,84.6118943 55.5051778,84.636539 C51.281326,84.7132114 47.0547327,84.6940433 42.829967,84.6392773 C42.0604985,84.6292369 40.6239137,85.1248691 40.6421909,84.0952686 C40.6650373,82.7945764 42.128124,83.4946683 42.9186112,83.4736746 C46.2103278,83.3860491 49.5056999,83.4353384 52.8001581,83.4344257 C57.4809389,83.4335129 57.4334183,83.4344257 57.3584819,78.7930085 C57.3383771,77.5598611 56.9609537,77.1555056 55.7555749,77.2102715 C54.0411773,77.2869439 52.3194688,77.2458694 50.6005018,77.220312 C50.0686364,77.2130098 49.2397672,77.4129057 49.2059545,76.6416181 C49.163917,75.7032942 50.0722919,75.9187071 50.6589887,75.8831092 C51.4430789,75.8356453 52.2335661,75.8703305 53.0213117,75.872156 C57.38407,75.8831092 57.3200999,75.8821964 57.3621374,71.6268794 C57.377673,70.1226404 56.9390211,69.6607806 55.4201891,69.6927274 C50.9824945,69.7849168 46.5411444,69.7292381 42.1016221,69.7073317 C41.510356,69.7045934 40.5718238,69.9473892 40.5791347,69.0291462 C40.5855317,68.1446756 41.5121837,68.3390948 42.11533,68.3363565 C45.6958258,68.3171884 49.2763215,68.3244906 52.8568173,68.3254033 C57.6545719,68.3272289 57.6134483,68.3299672 57.3539126,63.5990989 C57.2899426,62.4398855 56.8631709,62.1386726 55.7903016,62.1751833 C53.9306005,62.2381641 52.0672439,62.199828 50.2057151,62.1770088 C49.6994378,62.1715322 49.1145687,62.0939471 49.1885912,61.3911169 C49.2443365,60.8644507 49.7423891,60.8069464 50.1819548,60.8023826 C51.1844571,60.7914294 52.1869593,60.7932549 53.1894616,60.7923422 C57.441643,60.7896039 57.3868115,60.7905166 57.3548265,56.4548762 C57.3438602,55.0702095 56.9618675,54.5882689 55.5289382,54.6138263 C51.0190488,54.6950625 46.5064178,54.650337 41.9947008,54.63482 C41.4610077,54.6329944 40.6266553,54.8365413 40.5818762,54.0780325 C40.5179062,53.021049 41.4948204,53.4226662 42.0266858,53.4190151 C46.537489,53.3834172 51.0492061,53.4053236 55.5609232,53.3943704 C56.3751707,53.3925449 57.3548265,53.665462 57.3383771,52.2451975 C57.2990812,48.9701916 57.325583,45.6951858 57.325583,42.3635884 Z M28.8324036,116.71754 C28.8369729,115.727188 28.7209129,115.032573 27.5493469,114.60905 C25.6978705,113.939079 25.7627545,112.18748 25.89435,110.597441 C26.0277733,108.995536 25.5397731,108.433272 23.7970458,108.322827 C17.5681895,107.927599 11.4544793,106.843233 5.6149265,104.501074 C1.55282756,102.872699 0.156452494,100.888345 0.155538636,96.5426641 C0.15371092,84.02316 0.154624778,71.5045687 0.156452494,58.9850647 C0.158280211,46.4664734 0.221336415,33.9469693 0.116242741,21.4292908 C0.0879131423,18.01737 1.48154664,16.0238881 4.58043921,14.6930747 C14.6182558,10.3793407 25.0325819,8.25898429 35.9458745,9.20552306 C43.6259373,9.87184254 50.9633034,12.0104542 57.9460926,15.2754197 C60.0433968,16.2557308 61.1601313,17.9644295 61.1573898,20.4069924 C61.1336294,46.1606966 61.1381987,71.9134881 61.1473373,97.6671923 C61.1482512,101.204162 59.0683103,103.141965 56.0726837,104.365072 C50.1207263,106.797595 43.872679,107.950419 37.4921222,108.322827 C35.7795523,108.422319 35.2248405,108.946247 35.3664885,110.588314 C35.5254998,112.429363 35.4679267,114.244856 33.1576936,114.871014 C32.6541578,115.007016 32.5600305,116.291278 32.5792215,116.71754 L28.8324036,116.71754 Z" id="Stroke-7" stroke="#EC2026" stroke-width="10"></path>
                            <path d="M57.325583,42.3635884 C57.325583,45.6951858 57.2990812,48.9701916 57.3383771,52.2451975 C57.3548265,53.665462 56.3751707,53.3925449 55.5609232,53.3943704 C51.0492061,53.4053236 46.537489,53.3834172 42.0266858,53.4190151 C41.4948204,53.4226662 40.5179062,53.021049 40.5818762,54.0780325 C40.6266553,54.8365413 41.4610077,54.6329944 41.9947008,54.63482 C46.5064178,54.650337 51.0190488,54.6950625 55.5289382,54.6138263 C56.9618675,54.5882689 57.3438602,55.0702095 57.3548265,56.4548762 C57.3868115,60.7905166 57.441643,60.7896039 53.1894616,60.7923422 C52.1869593,60.7932549 51.1844571,60.7914294 50.1819548,60.8023826 C49.7423891,60.8069464 49.2443365,60.8644507 49.1885912,61.3911169 C49.1145687,62.0939471 49.6994378,62.1715322 50.2057151,62.1770088 C52.0672439,62.199828 53.9306005,62.2381641 55.7903016,62.1751833 C56.8631709,62.1386726 57.2899426,62.4398855 57.3539126,63.5990989 C57.6134483,68.3299672 57.6545719,68.3272289 52.8568173,68.3254033 C49.2763215,68.3244906 45.6958258,68.3171884 42.11533,68.3363565 C41.5121837,68.3390948 40.5855317,68.1446756 40.5791347,69.0291462 C40.5718238,69.9473892 41.510356,69.7045934 42.1016221,69.7073317 C46.5411444,69.7292381 50.9824945,69.7849168 55.4201891,69.6927274 C56.9390211,69.6607806 57.377673,70.1226404 57.3621374,71.6268794 C57.3200999,75.8821964 57.38407,75.8831092 53.0213117,75.872156 C52.2335661,75.8703305 51.4430789,75.8356453 50.6589887,75.8831092 C50.0722919,75.9187071 49.163917,75.7032942 49.2059545,76.6416181 C49.2397672,77.4129057 50.0686364,77.2130098 50.6005018,77.220312 C52.3194688,77.2458694 54.0411773,77.2869439 55.7555749,77.2102715 C56.9609537,77.1555056 57.3383771,77.5598611 57.3584819,78.7930085 C57.4334183,83.4344257 57.4809389,83.4335129 52.8001581,83.4344257 C49.5056999,83.4353384 46.2103278,83.3860491 42.9186112,83.4736746 C42.128124,83.4946683 40.6650373,82.7945764 40.6421909,84.0952686 C40.6239137,85.1248691 42.0604985,84.6292369 42.829967,84.6392773 C47.0547327,84.6940433 51.281326,84.7132114 55.5051778,84.636539 C56.8613432,84.6118943 57.3986917,84.9350137 57.3566542,86.4018293 C57.255216,89.9032012 57.2826317,93.4109625 57.3392909,96.9150728 C57.3703621,98.8136269 56.5515453,99.9372423 54.8042487,100.677496 C50.0814305,102.676454 45.1328892,103.797331 40.0701157,104.198949 C29.1074748,105.069728 18.1905268,105.074292 7.66927935,101.120188 C4.33186983,99.8660466 4.0211581,99.4589527 4.02024424,95.9931787 C4.01841652,77.9678677 4.02024424,59.9434694 4.02389967,41.9181584 C4.02389967,39.5586572 4.22220686,39.438172 6.64758607,39.8872531 C12.0941799,40.8976855 17.1377624,43.1449164 22.2846108,45.0407322 C33.1723153,49.0532534 43.7419973,48.0984997 54.1736867,43.4799017 C55.1295822,43.0572908 56.0141968,42.4037501 57.325583,42.3635884 Z" id="Stroke-9" stroke="#EC2026" stroke-width="4"></path>
                            <path d="M57.325583,42.3635884 C56.0141968,42.4037501 55.1295822,43.0572908 54.1736867,43.4799017 C43.7419973,48.0984997 33.1723153,49.0532534 22.2846108,45.0407322 C17.1377624,43.1449164 12.0941799,40.8976855 6.64758607,39.8872531 C4.22220686,39.438172 4.02389967,39.5586572 4.02389967,41.9181584 C4.02024424,59.9434694 4.01841652,77.9678677 4.02024424,95.9931787 C4.0211581,99.4589527 4.33186983,99.8660466 7.66927935,101.120188 C18.1905268,105.074292 29.1074748,105.069728 40.0701157,104.198949 C45.1328892,103.797331 50.0814305,102.676454 54.8042487,100.677496 C56.5515453,99.9372423 57.3703621,98.8136269 57.3392909,96.9150728 C57.2826317,93.4109625 57.255216,89.9032012 57.3566542,86.4018293 C57.3986917,84.9350137 56.8613432,84.6118943 55.5051778,84.636539 C51.281326,84.7132114 47.0547327,84.6940433 42.829967,84.6392773 C42.0604985,84.6292369 40.6239137,85.1248691 40.6421909,84.0952686 C40.6650373,82.7945764 42.128124,83.4946683 42.9186112,83.4736746 C46.2103278,83.3860491 49.5056999,83.4353384 52.8001581,83.4344257 C57.4809389,83.4335129 57.4334183,83.4344257 57.3584819,78.7930085 C57.3383771,77.5598611 56.9609537,77.1555056 55.7555749,77.2102715 C54.0411773,77.2869439 52.3194688,77.2458694 50.6005018,77.220312 C50.0686364,77.2130098 49.2397672,77.4129057 49.2059545,76.6416181 C49.163917,75.7032942 50.0722919,75.9187071 50.6589887,75.8831092 C51.4430789,75.8356453 52.2335661,75.8703305 53.0213117,75.872156 C57.38407,75.8831092 57.3200999,75.8821964 57.3621374,71.6268794 C57.377673,70.1226404 56.9390211,69.6607806 55.4201891,69.6927274 C50.9824945,69.7849168 46.5411444,69.7292381 42.1016221,69.7073317 C41.510356,69.7045934 40.5718238,69.9473892 40.5791347,69.0291462 C40.5855317,68.1446756 41.5121837,68.3390948 42.11533,68.3363565 C45.6958258,68.3171884 49.2763215,68.3244906 52.8568173,68.3254033 C57.6545719,68.3272289 57.6134483,68.3299672 57.3539126,63.5990989 C57.2899426,62.4398855 56.8631709,62.1386726 55.7903016,62.1751833 C53.9306005,62.2381641 52.0672439,62.199828 50.2057151,62.1770088 C49.6994378,62.1715322 49.1145687,62.0939471 49.1885912,61.3911169 C49.2443365,60.8644507 49.7423891,60.8069464 50.1819548,60.8023826 C51.1844571,60.7914294 52.1869593,60.7932549 53.1894616,60.7923422 C57.441643,60.7896039 57.3868115,60.7905166 57.3548265,56.4548762 C57.3438602,55.0702095 56.9618675,54.5882689 55.5289382,54.6138263 C51.0190488,54.6950625 46.5064178,54.650337 41.9947008,54.63482 C41.4610077,54.6329944 40.6266553,54.8365413 40.5818762,54.0780325 C40.5179062,53.021049 41.4948204,53.4226662 42.0266858,53.4190151 C46.537489,53.3834172 51.0492061,53.4053236 55.5609232,53.3943704 C56.3751707,53.3925449 57.3548265,53.665462 57.3383771,52.2451975 C57.2990812,48.9701916 57.325583,45.6951858 57.325583,42.3635884 M28.8324036,116.71754 C28.8369729,115.727188 28.7209129,115.032573 27.5493469,114.60905 C25.6978705,113.939079 25.7627545,112.18748 25.89435,110.597441 C26.0277733,108.995536 25.5397731,108.433272 23.7970458,108.322827 C17.5681895,107.927599 11.4544793,106.843233 5.6149265,104.501074 C1.55282756,102.872699 0.156452494,100.888345 0.155538636,96.5426641 C0.15371092,84.02316 0.154624778,71.5045687 0.156452494,58.9850647 C0.158280211,46.4664734 0.221336415,33.9469693 0.116242741,21.4292908 C0.0879131423,18.01737 1.48154664,16.0238881 4.58043921,14.6930747 C14.6182558,10.3793407 25.0325819,8.25898429 35.9458745,9.20552306 C43.6259373,9.87184254 50.9633034,12.0104542 57.9460926,15.2754197 C60.0433968,16.2557308 61.1601313,17.9644295 61.1573898,20.4069924 C61.1336294,46.1606966 61.1381987,71.9134881 61.1473373,97.6671923 C61.1482512,101.204162 59.0683103,103.141965 56.0726837,104.365072 C50.1207263,106.797595 43.872679,107.950419 37.4921222,108.322827 C35.7795523,108.422319 35.2248405,108.946247 35.3664885,110.588314 C35.5254998,112.429363 35.4679267,114.244856 33.1576936,114.871014 C32.6541578,115.007016 32.5600305,116.291278 32.5792215,116.71754" id="Fill-11" fill="#FEFEFE"></path>
                            <path d="M57.325583,42.3635884 C57.325583,45.6951858 57.2990812,48.9701916 57.3383771,52.2451975 C57.3548265,53.665462 56.3751707,53.3925449 55.5609232,53.3943704 C51.0492061,53.4053236 46.537489,53.3834172 42.0266858,53.4190151 C41.4948204,53.4226662 40.5179062,53.021049 40.5818762,54.0780325 C40.6266553,54.8365413 41.4610077,54.6329944 41.9947008,54.63482 C46.5064178,54.650337 51.0190488,54.6950625 55.5289382,54.6138263 C56.9618675,54.5882689 57.3438602,55.0702095 57.3548265,56.4548762 C57.3868115,60.7905166 57.441643,60.7896039 53.1894616,60.7923422 C52.1869593,60.7932549 51.1844571,60.7914294 50.1819548,60.8023826 C49.7423891,60.8069464 49.2443365,60.8644507 49.1885912,61.3911169 C49.1145687,62.0939471 49.6994378,62.1715322 50.2057151,62.1770088 C52.0672439,62.199828 53.9306005,62.2381641 55.7903016,62.1751833 C56.8631709,62.1386726 57.2899426,62.4398855 57.3539126,63.5990989 C57.6134483,68.3299672 57.6545719,68.3272289 52.8568173,68.3254033 C49.2763215,68.3244906 45.6958258,68.3171884 42.11533,68.3363565 C41.5121837,68.3390948 40.5855317,68.1446756 40.5791347,69.0291462 C40.5718238,69.9473892 41.510356,69.7045934 42.1016221,69.7073317 C46.5411444,69.7292381 50.9824945,69.7849168 55.4201891,69.6927274 C56.9390211,69.6607806 57.377673,70.1226404 57.3621374,71.6268794 C57.3200999,75.8821964 57.38407,75.8831092 53.0213117,75.872156 C52.2335661,75.8703305 51.4430789,75.8356453 50.6589887,75.8831092 C50.0722919,75.9187071 49.163917,75.7032942 49.2059545,76.6416181 C49.2397672,77.4129057 50.0686364,77.2130098 50.6005018,77.220312 C52.3194688,77.2458694 54.0411773,77.2869439 55.7555749,77.2102715 C56.9609537,77.1555056 57.3383771,77.5598611 57.3584819,78.7930085 C57.4334183,83.4344257 57.4809389,83.4335129 52.8001581,83.4344257 C49.5056999,83.4353384 46.2103278,83.3860491 42.9186112,83.4736746 C42.128124,83.4946683 40.6650373,82.7945764 40.6421909,84.0952686 C40.6239137,85.1248691 42.0604985,84.6292369 42.829967,84.6392773 C47.0547327,84.6940433 51.281326,84.7132114 55.5051778,84.636539 C56.8613432,84.6118943 57.3986917,84.9350137 57.3566542,86.4018293 C57.255216,89.9032012 57.2826317,93.4109625 57.3392909,96.9150728 C57.3703621,98.8136269 56.5515453,99.9372423 54.8042487,100.677496 C50.0814305,102.676454 45.1328892,103.797331 40.0701157,104.198949 C29.1074748,105.069728 18.1905268,105.074292 7.66927935,101.120188 C4.33186983,99.8660466 4.0211581,99.4589527 4.02024424,95.9931787 C4.01841652,77.9678677 4.02024424,59.9434694 4.02389967,41.9181584 C4.02389967,39.5586572 4.22220686,39.438172 6.64758607,39.8872531 C12.0941799,40.8976855 17.1377624,43.1449164 22.2846108,45.0407322 C33.1723153,49.0532534 43.7419973,48.0984997 54.1736867,43.4799017 C55.1295822,43.0572908 56.0141968,42.4037501 57.325583,42.3635884" id="Fill-13" fill="#ED1C24"></path>
                            <path d="M35.0391445,18.6395115 L26.7358305,18.6395115 C24.4776873,18.6395115 22.6298664,16.7938979 22.6298664,14.5384521 L22.6298664,6.24505649 C22.6298664,3.98961069 24.4776873,2.14399702 26.7358305,2.14399702 L35.0391445,2.14399702 C37.2972877,2.14399702 39.1451087,3.98961069 39.1451087,6.24505649 L39.1451087,14.5384521 C39.1451087,16.7938979 37.2972877,18.6395115 35.0391445,18.6395115 Z" id="Stroke-15" stroke="#FEFEFE" stroke-width="4.254"></path>
                        </g>
                        <path d="M32.1576588,111.059484 L29.3082494,111.059484 C28.5844739,111.059484 27.9922939,110.468011 27.9922939,109.7451 L27.9922939,102.78982 C27.9922939,102.066909 28.5844739,101.475436 29.3082494,101.475436 L32.1576588,101.475436 C32.8814343,101.475436 33.4736143,102.066909 33.4736143,102.78982 L33.4736143,109.7451 C33.4736143,110.468011 32.8814343,111.059484 32.1576588,111.059484" id="Fill-18" fill="#ED1C24"></path>
                    </g>
                </g>
            </g>
        </g>
    </g>
</svg>