<?xml version="1.0" encoding="utf-8"?>
<!-- Generator: Adobe Illustrator 20.1.0, SVG Export Plug-In . SVG Version: 6.00 Build 0)  -->
<svg version="1.1" id="Layer_1" xmlns="http://www.w3.org/2000/svg" xmlns:xlink="http://www.w3.org/1999/xlink" x="0px" y="0px"
	 viewBox="0 0 337.9 81.1" style="enable-background:new 0 0 337.9 81.1;" xml:space="preserve">
<style type="text/css">
	.st0{fill:#007DC5;}
	.st1{fill:#FFFFFF;}
	.st2{fill:#ED1C24;}
</style>
<polygon class="st0" points="-0.1,17.8 7.7,0 337.9,0 329.9,17.8 "/>
<g>
	<path class="st1" d="M22.7,5.7c0-0.1,0.1-0.2,0.1-0.3c0-0.2-0.1-0.3-0.2-0.4h1.5l3.1,8.1c0.2,0.5,0.3,0.5,0.5,0.7h-2
		c0.1-0.1,0.3-0.1,0.3-0.4c0-0.1,0-0.2-0.1-0.3l-0.9-2.3h-3.5L20.8,13c0,0.1-0.1,0.2-0.1,0.3c0,0.4,0.2,0.3,0.3,0.4h-1.7
		c0.1-0.1,0.3-0.1,0.5-0.7L22.7,5.7z M24.8,10l-1.5-3.8L21.9,10H24.8z"/>
	<path class="st1" d="M33.6,6.8c-0.1-0.1-0.7-1.1-2.2-1.1c-1,0-1.7,0.6-1.7,1.5c0,0.7,0.3,1,1.2,1.4L32.1,9c1.4,0.5,2.1,1.2,2.1,2.4
		c0,1.5-1.2,2.5-3,2.5c-1.4,0-1.9-0.6-2.3-0.6c-0.1,0-0.2,0.1-0.3,0.2v-1.9c0.3,0.5,1,1.3,2.5,1.3c1.1,0,1.9-0.6,1.9-1.5
		c0-0.8-0.5-1.1-1.4-1.5l-1.2-0.5c-1.2-0.4-1.9-1.2-1.9-2.3c0-1.5,1.3-2.5,3-2.5c1.2,0,1.5,0.4,1.9,0.4c0.1,0,0.2,0,0.3-0.1V6.8z"/>
	<path class="st1" d="M40.9,6.8c-0.1-0.1-0.7-1.1-2.2-1.1c-1,0-1.7,0.6-1.7,1.5c0,0.7,0.3,1,1.2,1.4L39.4,9c1.4,0.5,2.1,1.2,2.1,2.4
		c0,1.5-1.2,2.5-3,2.5c-1.4,0-1.9-0.6-2.3-0.6c-0.1,0-0.2,0.1-0.3,0.2v-1.9c0.3,0.5,1,1.3,2.5,1.3c1.1,0,1.9-0.6,1.9-1.5
		c0-0.8-0.5-1.1-1.4-1.5l-1.2-0.5c-1.2-0.4-1.9-1.2-1.9-2.3c0-1.5,1.3-2.5,3-2.5c1.2,0,1.5,0.4,1.9,0.4c0.1,0,0.2,0,0.3-0.1V6.8z"/>
	<path class="st1" d="M43,9.4c0-2.4,1.7-4.6,4.3-4.6c2.5,0,4.2,2.2,4.2,4.6c0,2.3-1.6,4.5-4.3,4.5C44.8,13.9,43,11.8,43,9.4z
		 M47.3,13c1.9,0,3-1.9,3-3.6c0-2-1.3-3.7-3-3.7c-1.9,0-3.1,1.8-3.1,3.7C44.2,11.2,45.4,13,47.3,13z"/>
	<path class="st1" d="M59.3,13.3c-0.1-0.1-0.2-0.1-0.3-0.1c-0.2,0-1,0.8-2.2,0.8c-2.2,0-3.8-1.9-3.8-4.5c0-2.7,1.7-4.6,3.9-4.6
		c1.2,0,1.5,0.4,1.9,0.4c0.1,0,0.2,0,0.3-0.1v1.7c-0.1-0.1-0.7-1.1-2-1.1c-1.6,0-2.9,1.5-2.9,3.7c0,2.1,1.1,3.6,2.8,3.6
		c1.1,0,2-0.9,2.4-1.4V13.3z"/>
	<path class="st1" d="M61.2,5.7c0-0.5-0.1-0.6-0.3-0.7h1.8c-0.2,0.2-0.3,0.2-0.3,0.7V13c0,0.5,0.1,0.6,0.3,0.7h-1.8
		c0.2-0.2,0.3-0.2,0.3-0.7V5.7z"/>
	<path class="st1" d="M67,5.7c0-0.1,0.1-0.2,0.1-0.3c0-0.2-0.1-0.3-0.2-0.4h1.5l3.1,8.1c0.2,0.5,0.3,0.5,0.5,0.7h-2
		c0.1-0.1,0.3-0.1,0.3-0.4c0-0.1,0-0.2-0.1-0.3l-0.9-2.3H66L65.2,13c0,0.1-0.1,0.2-0.1,0.3c0,0.4,0.2,0.3,0.3,0.4h-1.7
		c0.1-0.1,0.3-0.1,0.5-0.7L67,5.7z M69.2,10l-1.5-3.8L66.3,10H69.2z"/>
	<path class="st1" d="M77.2,5.8h-3.6c-0.6,0-0.6,0.1-0.8,0.4V5h5.8v0.6l-4.7,7.4h4c0.7,0,0.7-0.3,0.9-0.4v1.2h-6.3v-0.6L77.2,5.8z"
		/>
	<path class="st1" d="M80.4,5.7c0-0.5-0.1-0.6-0.3-0.7h1.8c-0.2,0.2-0.3,0.2-0.3,0.7V13c0,0.5,0.1,0.6,0.3,0.7h-1.8
		c0.2-0.2,0.3-0.2,0.3-0.7V5.7z"/>
	<path class="st1" d="M83.6,9.4c0-2.4,1.7-4.6,4.3-4.6c2.5,0,4.2,2.2,4.2,4.6c0,2.3-1.6,4.5-4.3,4.5C85.4,13.9,83.6,11.8,83.6,9.4z
		 M87.9,13c1.9,0,3-1.9,3-3.6c0-2-1.3-3.7-3-3.7c-1.9,0-3.1,1.8-3.1,3.7C84.8,11.2,85.9,13,87.9,13z"/>
	<path class="st1" d="M94.2,5.7c0-0.5-0.1-0.6-0.3-0.7h1.5l4.7,6.9h0V5.7c0-0.5-0.1-0.6-0.3-0.7h1.5C101,5.2,101,5.2,101,5.7v8h-1
		L95,6.6h0V13c0,0.5,0.1,0.6,0.3,0.7h-1.5c0.2-0.2,0.3-0.2,0.3-0.7V5.7z"/>
	<path class="st1" d="M103.6,5.7c0-0.5-0.1-0.6-0.3-0.7h5.5v1.2c-0.1-0.1-0.2-0.4-0.8-0.4h-3.1v3h2.8c0.6,0,0.6-0.1,0.8-0.3v1.4
		c-0.1-0.1-0.1-0.3-0.8-0.3h-2.8v3.3h3.1c0.6,0,0.7-0.2,0.8-0.4v1.2h-5.5c0.2-0.2,0.3-0.2,0.3-0.7V5.7z"/>
	<path class="st1" d="M113.8,5.6c-0.1-0.4-0.3-0.5-0.4-0.6h1.9c-0.1,0.1-0.3,0.2-0.3,0.3c0,0,0,0.2,0.1,0.3l2.3,6.8h0l2-6.7
		c0-0.1,0.1-0.3,0.1-0.4c0-0.1-0.1-0.2-0.2-0.3h1.5c-0.2,0.2-0.4,0.4-0.5,0.7l-2.6,8.1h-1.1L113.8,5.6z"/>
	<path class="st1" d="M121.1,9.4c0-2.4,1.7-4.6,4.3-4.6c2.5,0,4.2,2.2,4.2,4.6c0,2.3-1.6,4.5-4.3,4.5
		C122.9,13.9,121.1,11.8,121.1,9.4z M125.4,13c1.9,0,3-1.9,3-3.6c0-2-1.3-3.7-3-3.7c-1.9,0-3.1,1.8-3.1,3.7
		C122.3,11.2,123.4,13,125.4,13z"/>
	<path class="st1" d="M131.6,5.7c0-0.5-0.1-0.6-0.3-0.7h1.8c-0.2,0.2-0.3,0.2-0.3,0.7v7.2h3.1c0.6,0,0.7-0.2,0.8-0.4v1.2h-5.5
		c0.2-0.2,0.3-0.2,0.3-0.7V5.7z"/>
	<path class="st1" d="M137.6,9.4c0-2.4,1.7-4.6,4.3-4.6c2.5,0,4.2,2.2,4.2,4.6c0,2.3-1.6,4.5-4.3,4.5
		C139.4,13.9,137.6,11.8,137.6,9.4z M141.9,13c1.9,0,3-1.9,3-3.6c0-2-1.3-3.7-3-3.7c-1.9,0-3.1,1.8-3.1,3.7
		C138.8,11.2,140,13,141.9,13z"/>
	<path class="st1" d="M148.2,5.7c0-0.5-0.1-0.6-0.3-0.7h1.5l4.7,6.9h0V5.7c0-0.5-0.1-0.6-0.3-0.7h1.5c-0.2,0.2-0.3,0.2-0.3,0.7v8h-1
		l-4.9-7.2h0V13c0,0.5,0.1,0.6,0.3,0.7h-1.5c0.2-0.2,0.3-0.2,0.3-0.7V5.7z"/>
	<path class="st1" d="M163.1,5v1.2c-0.2-0.2-0.2-0.4-0.8-0.4h-1.8V13c0,0.5,0.1,0.6,0.3,0.7H159c0.2-0.2,0.3-0.2,0.3-0.7V5.8h-1.8
		c-0.6,0-0.6,0.2-0.8,0.4V5H163.1z"/>
	<path class="st1" d="M165.7,5.7c0-0.1,0.1-0.2,0.1-0.3c0-0.2-0.1-0.3-0.2-0.4h1.5l3.1,8.1c0.2,0.5,0.3,0.5,0.5,0.7h-2
		c0.1-0.1,0.3-0.1,0.3-0.4c0-0.1,0-0.2-0.1-0.3l-0.9-2.3h-3.5l-0.8,2.2c0,0.1-0.1,0.2-0.1,0.3c0,0.4,0.2,0.3,0.3,0.4h-1.7
		c0.1-0.1,0.3-0.1,0.5-0.7L165.7,5.7z M167.8,10l-1.5-3.8l-1.5,3.8H167.8z"/>
	<path class="st1" d="M172,5.7c0-0.5-0.1-0.6-0.3-0.7h2.8c2.6,0,3.6,0.8,3.6,2.6c0,0.8-0.7,1.9-2.2,2.2L178,13
		c0.4,0.6,0.4,0.6,0.6,0.7h-1.6l-2.3-3.8h-1.5V13c0,0.5,0.1,0.6,0.3,0.7h-1.8c0.2-0.2,0.3-0.2,0.3-0.7V5.7z M174.4,9.1
		c0.9,0,2.4,0,2.4-1.5c0-1-0.6-1.7-2.4-1.7h-1.2v3.3H174.4z"/>
	<path class="st1" d="M180.1,5.7c0-0.5-0.1-0.6-0.3-0.7h1.8c-0.2,0.2-0.3,0.2-0.3,0.7V13c0,0.5,0.1,0.6,0.3,0.7h-1.8
		c0.2-0.2,0.3-0.2,0.3-0.7V5.7z"/>
	<path class="st1" d="M187.6,5.7c0-0.5-0.1-0.6-0.3-0.7h1.8c-0.2,0.2-0.3,0.2-0.3,0.7V13c0,0.5,0.1,0.6,0.3,0.7h-1.8
		c0.2-0.2,0.3-0.2,0.3-0.7V5.7z"/>
	<path class="st1" d="M196.8,5v1.2c-0.2-0.2-0.2-0.4-0.8-0.4h-1.8V13c0,0.5,0.1,0.6,0.3,0.7h-1.8c0.2-0.2,0.3-0.2,0.3-0.7V5.8h-1.8
		c-0.6,0-0.6,0.2-0.8,0.4V5H196.8z"/>
	<path class="st1" d="M199.3,5.7c0-0.1,0.1-0.2,0.1-0.3c0-0.2-0.1-0.3-0.2-0.4h1.5l3.1,8.1c0.2,0.5,0.3,0.5,0.5,0.7h-2
		c0.1-0.1,0.3-0.1,0.3-0.4c0-0.1,0-0.2-0.1-0.3l-0.9-2.3h-3.5l-0.8,2.2c0,0.1-0.1,0.2-0.1,0.3c0,0.4,0.2,0.3,0.3,0.4H196
		c0.1-0.1,0.3-0.1,0.5-0.7L199.3,5.7z M201.5,10L200,6.2l-1.5,3.8H201.5z"/>
	<path class="st1" d="M205.7,5.7c0-0.5-0.1-0.6-0.3-0.7h1.8c-0.2,0.2-0.3,0.2-0.3,0.7v7.2h3.1c0.6,0,0.7-0.2,0.8-0.4v1.2h-5.5
		c0.2-0.2,0.3-0.2,0.3-0.7V5.7z"/>
	<path class="st1" d="M212.2,5.7c0-0.5-0.1-0.6-0.3-0.7h1.8c-0.2,0.2-0.3,0.2-0.3,0.7V13c0,0.5,0.1,0.6,0.3,0.7h-1.8
		c0.2-0.2,0.3-0.2,0.3-0.7V5.7z"/>
	<path class="st1" d="M218.1,5.7c0-0.1,0.1-0.2,0.1-0.3c0-0.2-0.1-0.3-0.2-0.4h1.5l3.1,8.1c0.2,0.5,0.3,0.5,0.5,0.7h-2
		c0.1-0.1,0.3-0.1,0.3-0.4c0-0.1,0-0.2-0.1-0.3l-0.9-2.3H217l-0.8,2.2c0,0.1-0.1,0.2-0.1,0.3c0,0.4,0.2,0.3,0.3,0.4h-1.7
		c0.1-0.1,0.3-0.1,0.5-0.7L218.1,5.7z M220.2,10l-1.5-3.8l-1.5,3.8H220.2z"/>
	<path class="st1" d="M224.4,5.7c0-0.5-0.1-0.6-0.3-0.7h1.5l4.7,6.9h0V5.7c0-0.5-0.1-0.6-0.3-0.7h1.5c-0.2,0.2-0.3,0.2-0.3,0.7v8h-1
		l-4.9-7.2h0V13c0,0.5,0.1,0.6,0.3,0.7h-1.5c0.2-0.2,0.3-0.2,0.3-0.7V5.7z"/>
	<path class="st1" d="M233.9,5.7c0-0.5-0.1-0.6-0.3-0.7h1.8c-0.2,0.2-0.3,0.2-0.3,0.7V13c0,0.5,0.1,0.6,0.3,0.7h-1.8
		c0.2-0.2,0.3-0.2,0.3-0.7V5.7z"/>
	<path class="st1" d="M245.9,6.8c-0.1-0.1-0.7-1.1-2.2-1.1c-1,0-1.7,0.6-1.7,1.5c0,0.7,0.3,1,1.2,1.4l1.2,0.5
		c1.4,0.5,2.1,1.2,2.1,2.4c0,1.5-1.2,2.5-3,2.5c-1.4,0-1.9-0.6-2.3-0.6c-0.1,0-0.2,0.1-0.3,0.2v-1.9c0.3,0.5,1,1.3,2.5,1.3
		c1.1,0,1.9-0.6,1.9-1.5c0-0.8-0.5-1.1-1.4-1.5l-1.2-0.5c-1.2-0.4-1.9-1.2-1.9-2.3c0-1.5,1.3-2.5,3-2.5c1.2,0,1.5,0.4,1.9,0.4
		c0.1,0,0.2,0,0.3-0.1V6.8z"/>
	<path class="st1" d="M250.2,5.7c0-0.1,0.1-0.2,0.1-0.3c0-0.2-0.1-0.3-0.2-0.4h1.5l3.1,8.1c0.2,0.5,0.3,0.5,0.5,0.7h-2
		c0.1-0.1,0.3-0.1,0.3-0.4c0-0.1,0-0.2-0.1-0.3l-0.9-2.3h-3.5l-0.8,2.2c0,0.1-0.1,0.2-0.1,0.3c0,0.4,0.2,0.3,0.3,0.4h-1.7
		c0.1-0.1,0.3-0.1,0.5-0.7L250.2,5.7z M252.3,10l-1.5-3.8l-1.5,3.8H252.3z"/>
	<path class="st1" d="M256.6,5.7c0-0.5-0.1-0.6-0.3-0.7h1.5l4.7,6.9h0V5.7c0-0.5-0.1-0.6-0.3-0.7h1.5c-0.2,0.2-0.3,0.2-0.3,0.7v8h-1
		l-4.9-7.2h0V13c0,0.5,0.1,0.6,0.3,0.7h-1.5c0.2-0.2,0.3-0.2,0.3-0.7V5.7z"/>
	<path class="st1" d="M272.2,7c-0.1-0.1-0.9-1.3-2.4-1.3c-1.8,0-3.1,1.6-3.1,3.7c0,2,1.1,3.6,3,3.6c0.5,0,1-0.1,1.6-0.4v-2
		c0-0.5-0.1-0.6-0.3-0.7h1.8c-0.2,0.2-0.3,0.2-0.3,0.7v2.5c-0.7,0.5-1.9,0.8-2.9,0.8c-2.5,0-4.1-1.8-4.1-4.5c0-2.7,1.8-4.7,4.1-4.7
		c1.4,0,1.9,0.7,2.3,0.7c0.1,0,0.2,0,0.3-0.1V7z"/>
	<path class="st1" d="M281,10.7c0,1.9-0.5,3.2-3.2,3.2c-2.6,0-3.2-1.3-3.2-3.2v-5c0-0.5-0.1-0.6-0.3-0.7h1.8
		c-0.2,0.2-0.3,0.2-0.3,0.7v5c0,1.3,0.3,2.4,2.1,2.4c1.9,0,2.3-1,2.3-2.4v-5c0-0.5-0.1-0.6-0.3-0.7h1.5c-0.2,0.2-0.3,0.2-0.3,0.7
		V10.7z"/>
	<path class="st1" d="M283.5,5.7c0-0.5-0.1-0.6-0.3-0.7h5.5v1.2c-0.1-0.1-0.2-0.4-0.8-0.4h-3.1v3h2.8c0.6,0,0.6-0.1,0.8-0.3v1.4
		c-0.1-0.1-0.1-0.3-0.8-0.3h-2.8v3.3h3.1c0.6,0,0.7-0.2,0.8-0.4v1.2h-5.5c0.2-0.2,0.3-0.2,0.3-0.7V5.7z"/>
</g>
<g>
	<g>
		<path class="st0" d="M170.5,39.7c-0.2-1.6-1.5-2.5-3.2-2.5c-2.7,0-3.7,2.4-3.7,4.8s1,4.8,3.7,4.8c2,0,3.1-1.1,3.2-3h4.2
			c-0.2,4.1-3.3,6.6-7.3,6.6c-4.9,0-8-3.7-8-8.4s3.1-8.4,8-8.4c3.5,0,7.2,2.2,7.3,6.1H170.5z"/>
		<path class="st0" d="M182.7,38c3.6,0,6.2,2.7,6.2,6.2c0,3.5-2.5,6.2-6.2,6.2s-6.1-2.7-6.1-6.2C176.5,40.7,179,38,182.7,38z
			 M182.7,47.4c1.8,0,2.3-1.8,2.3-3.2s-0.6-3.3-2.3-3.3s-2.3,1.8-2.3,3.3S180.9,47.4,182.7,47.4z"/>
		<path class="st0" d="M191.1,38.4h3.7v1.6h0c0.7-1.2,1.9-1.9,3.3-1.9c1.5,0,2.8,0.5,3.4,1.9c0.9-1.2,2.1-1.9,3.6-1.9
			c3.7,0,4.1,2.8,4.1,5v7h-3.8v-6.9c0-1.3-0.6-2-1.6-2c-1.6,0-1.8,1.3-1.8,3.1V50h-3.8v-6.6c0-1.4-0.4-2.2-1.4-2.2
			c-1.4,0-2,0.8-2,3.2V50h-3.8V38.4z"/>
		<path class="st0" d="M223.9,50h-3.7v-1.6h0c-0.7,1.2-2.2,1.9-3.6,1.9c-3.3,0-4.3-1.9-4.3-5v-7h3.8v6.8c0,1.6,0.7,2.1,1.9,2.1
			c0.8,0,2.1-0.5,2.1-2.6v-6.2h3.8V50z"/>
		<path class="st0" d="M226.8,38.4h3.7v1.6h0c0.7-1.2,2.3-1.9,3.7-1.9c3.9,0,4.2,2.8,4.2,4.5V50h-3.8v-5.6c0-1.6,0.2-3.2-1.9-3.2
			c-1.4,0-2.1,1.2-2.1,2.5V50h-3.8V38.4z"/>
		<path class="st0" d="M241.1,41.9c0.1-1.5,0.8-2.5,1.8-3.1c1-0.6,2.4-0.8,3.7-0.8c2.8,0,5.4,0.6,5.4,3.9V47c0,1,0,2.1,0.4,3h-3.8
			c-0.1-0.4-0.2-0.7-0.2-1.1c-1,1-2.5,1.4-3.8,1.4c-2.2,0-4-1.1-4-3.5c0-3.8,4.1-3.5,6.8-4c0.7-0.1,1-0.4,1-1.1
			c0-0.9-1.1-1.2-1.8-1.2c-1.1,0-1.7,0.5-1.9,1.5H241.1z M246,48c1.8,0,2.4-1,2.3-3.4c-0.5,0.3-1.5,0.4-2.4,0.6
			c-0.9,0.2-1.6,0.6-1.6,1.5C244.4,47.6,245.2,48,246,48z"/>
		<path class="st0" d="M255,34h3.8v16H255V34z"/>
		<path class="st0" d="M265.1,45.1c0.1,1.6,1,2.7,2.6,2.7c0.9,0,1.8-0.4,2.2-1.3h3.6c-0.7,2.7-3.2,3.9-5.8,3.9
			c-3.8,0-6.4-2.3-6.4-6.2c0-3.6,2.9-6.1,6.3-6.1c4.2,0,6.3,3.1,6.1,7.1H265.1z M269.8,43c-0.1-1.3-1-2.4-2.3-2.4
			c-1.3,0-2.2,1-2.5,2.4H269.8z"/>
	</g>
	<g>
		<path class="st0" d="M159.9,54.9h8.2c2.8,0,5.6,1.3,5.6,4.5c0,1.7-0.8,3.4-2.5,4v0c1.7,0.4,2.2,2.3,2.3,3.8c0,0.7,0.1,3,0.7,3.6
			H170c-0.4-0.5-0.4-2.1-0.5-2.6c-0.1-1.6-0.4-3.3-2.3-3.3h-3.2V71h-4.2V54.9z M164.1,61.9h3.5c1.3,0,1.9-0.7,1.9-1.9
			c0-1.2-0.9-1.7-2.1-1.7h-3.3V61.9z"/>
		<path class="st0" d="M181.8,59c3.6,0,6.2,2.7,6.2,6.2s-2.5,6.2-6.2,6.2c-3.6,0-6.1-2.7-6.1-6.2S178.2,59,181.8,59z M181.8,68.4
			c1.8,0,2.3-1.8,2.3-3.2s-0.6-3.3-2.3-3.3s-2.3,1.8-2.3,3.3S180.1,68.4,181.8,68.4z"/>
		<path class="st0" d="M197.3,71h-4.4L189,59.3h4l2.1,7.7h0l2.2-7.7h3.9L197.3,71z"/>
		<path class="st0" d="M206.7,57.9h-3.8v-2.9h3.8V57.9z M202.8,59.3h3.8V71h-3.8V59.3z"/>
		<path class="st0" d="M221,69.6c0,1.9-0.4,5.5-5.8,5.5c-2.7,0-5.3-0.6-5.7-3.7h3.8c0.1,0.5,0.3,0.8,0.7,1c0.3,0.2,0.8,0.2,1.4,0.2
			c1.8,0,2-1.3,2-2.7v-1.1h0c-0.7,1.1-1.9,1.7-3.1,1.7c-3.5,0-5.1-2.5-5.1-5.8c0-3.1,1.8-5.7,5.1-5.7c1.4,0,2.5,0.6,3.1,1.8h0v-1.5
			h3.7V69.6z M215,61.9c-1.7,0-2.2,1.5-2.2,2.9c0,1.4,0.6,2.7,2.2,2.7c1.6,0,2.3-1.3,2.3-2.7C217.3,63.4,216.7,61.9,215,61.9z"/>
		<path class="st0" d="M229.3,59c3.6,0,6.2,2.7,6.2,6.2s-2.5,6.2-6.2,6.2s-6.1-2.7-6.1-6.2S225.7,59,229.3,59z M229.3,68.4
			c1.8,0,2.3-1.8,2.3-3.2s-0.6-3.3-2.3-3.3s-2.3,1.8-2.3,3.3S227.5,68.4,229.3,68.4z"/>
	</g>
</g>
<path class="st0" d="M126.1,33.6l3.1,0l12,1.6l-0.2,1.5l-1.7,11.8c-2.8-0.8-7.2-1.8-10-1.8c-0.8,0-3.6-0.1-3.6,1.1
	c0,0.8,1,1.1,1.2,1.1h1.9c8.1,0,15.7,4.9,15.7,14.3c0,7.6-6.1,14-15.4,14.2l-8.2-0.1c-4.3-0.4-6.5-1.1-9.8-2.1c-0.4-2.3-1-6.9-1-7.2
	l-0.2-2.3l-0.3-4.9c4.8,1.4,9.8,3.3,14.2,3.3c0.6,0,3.4,0.1,3.4-1.1c0-0.5-0.7-1-0.9-1h-1.7c-6.7,0-14.8-3.5-16.4-12.4
	c0-1.4-0.1-1.4-0.1-1.8c0-8.9,7.1-14.2,15-14.2c0,0,0.4,0,0.6,0C124,33.6,126.1,33.6,126.1,33.6"/>
<path class="st0" d="M11.2,33.6l14.3,0c-5.1,6.7-9.8,14.1-9.8,21.1c0,5.2,3.4,8.6,8.4,8.6c0.3,0,1.7-0.1,2.6-0.2
	c-4.7,10-2.6,13.9-11.4,13.9c-0.3,0-0.7,0-2.1-0.1C4.2,75.7-0.5,70.2,0,62.9c0.4-5.2,2.8-10.2,2.7-10.2
	C2.7,52.6,11.3,33.7,11.2,33.6"/>
<path class="st0" d="M28.7,33.5h7.4l14.4,42.8H32.2L27.6,63c0.1-0.9,1.4-1.3,2.1-2.1c1.5-1.8,2-3.6,2-5.4c0-6.1-6.8-6.9-6.8-13.3
	C24.8,40.4,26.6,33.5,28.7,33.5"/>
<path class="st0" d="M39.2,33.6h18.4l7.7,21.6c2.5-1.5,3.7-7.2,3.7-9.5c0-3.6-1.6-8.6-5.3-11.8l19.8-0.2c3.6,2.3,4.7,7,4.7,10.1
	c0,0.3,0,1-0.1,2.7c-0.2,2.4-1.2,4.8-2.3,7.1c-2.9,6-13.8,22.7-16.2,22.7H54L39.2,33.6"/>
<path class="st0" d="M88.3,33.9h14.6c3.6,0,3.8,2.8,3.8,5.1l-0.3,10.2v22.9c0,1.4-0.4,3.2,1.5,4.3H92.7c-2.1,0-3.5-0.6-3.5-2.8V35.9
	C89.2,35.2,88.8,34.4,88.3,33.9"/>
<path class="st2" d="M26.8,33.7c-2,3.8-2.8,5.6-2.8,8.8c0,6.9,6.6,7.6,6.6,12.9c0,3.7-2.8,7-6.8,7c-4.7,0-6.9-4.3-6.9-7.5
	C16.9,48.2,21.1,39.5,26.8,33.7"/>
</svg>
