<svg version="1" xmlns="http://www.w3.org/2000/svg" width="768" height="768" viewBox="0 0 576.000000 576.000000"><path d="M133.1 68.7c-3 7.1-18.9 42.9-35.4 79.8-16.5 36.8-34.1 76.5-39.3 88.1-27 61.1-38 100.4-39.1 140-.6 20.6.8 32.3 5.8 47.9 12 37.7 41.8 66.7 84.9 82.8 26.8 10 62.6 15 90 12.8 36.1-3 51.5-12.5 63.9-39.3 2.1-4.5 8.2-21.1 13.6-36.8 9.7-28.5 16.1-45.4 23.7-62.8 2.3-5.1 3.9-9.5 3.6-9.8-.4-.3-4.9-.1-10.2.5-36.9 4.2-63.2-3.8-83.1-25-15.1-16.2-22.2-34.4-23.2-59.9-2.4-58.2 27.4-127.3 92.3-214.7 6.3-8.4 11.4-15.6 11.4-15.8 0-.3-34.5-.5-76.8-.5h-76.8l-5.3 12.7z"/><path d="M317.8 58.5c-10.9 7.4-24.7 38.7-31.4 71.2-4.3 21.2-2.7 37.7 5.5 54.8 5.1 10.7 12.9 20.8 31.2 40 25.1 26.5 32.1 39.6 33.5 62.5 1.2 18.6-3.9 36.6-14.9 53.2-5.2 7.8-7.7 10.4-15.1 15.9-9.9 7.4-12.5 10.3-12.6 13.8 0 1.7 30.3 90.6 48 140.9l1.2 3.2h98c78 0 97.9-.3 97.6-1.2-.3-.7-34.8-103.8-76.9-229L405.5 56h-84l-3.7 2.5z"/><path d="M295.1 68.2c-59.7 66.8-98.5 155.4-95.8 218.7 1 24.3 8.5 42.1 24.6 58.2 6.9 6.9 10.3 9.4 17.1 12.7 11.7 5.7 18.4 7.3 31.6 7.4 31.1.1 56.9-17.7 68.1-47.2 5.5-14.3 6.7-30.2 3.4-43.2-3.9-15-9.9-23.8-32.6-47.8-8.1-8.5-17.2-19.2-20.2-23.7-10.5-15.9-15.3-32.4-15.3-53.2 0-23.9 5-41.5 20.2-72.5 5.4-10.9 9.7-20.1 9.4-20.3-.2-.2-4.9 4.7-10.5 10.9z"/></svg>